<svg xmlns="http://www.w3.org/2000/svg" width="25.483" height="16.996" viewBox="0 0 25.483 16.996">
  <path id="Icon_ionic-ios-arrow-round-down" data-name="Icon ionic-ios-arrow-round-down" d="M27.918,24.126a1.157,1.157,0,0,0-1.629-.009L20.9,29.49V9.017a1.151,1.151,0,0,0-2.3,0V29.49l-5.39-5.382a1.165,1.165,0,0,0-1.629.009,1.146,1.146,0,0,0,.009,1.62l7.347,7.294h0a1.292,1.292,0,0,0,.363.239,1.1,1.1,0,0,0,.443.089,1.154,1.154,0,0,0,.805-.327l7.347-7.294A1.128,1.128,0,0,0,27.918,24.126Z" transform="translate(-7.875 28.243) rotate(-90)" fill="#8f60ff"/>
</svg>
