<svg xmlns="http://www.w3.org/2000/svg" width="32.337" height="22.388" viewBox="0 0 32.337 22.388">
  <g id="Icon_ionic-ios-mail" data-name="Icon ionic-ios-mail" transform="translate(0)">
    <path id="Path_1" data-name="Path 1" d="M35.448,10.362l-8.364,8.52a.15.15,0,0,0,0,.218l5.853,6.234a1.009,1.009,0,0,1,0,1.43,1.013,1.013,0,0,1-1.43,0l-5.83-6.211a.16.16,0,0,0-.225,0L24.029,22a6.259,6.259,0,0,1-4.462,1.881,6.384,6.384,0,0,1-4.555-1.936l-1.368-1.391a.16.16,0,0,0-.225,0l-5.83,6.211a1.013,1.013,0,0,1-1.43,0,1.009,1.009,0,0,1,0-1.43L12.011,19.1a.166.166,0,0,0,0-.218l-8.372-8.52a.153.153,0,0,0-.264.109V27.518a2.5,2.5,0,0,0,2.487,2.488H33.225a2.5,2.5,0,0,0,2.487-2.488V10.47A.156.156,0,0,0,35.448,10.362Z" transform="translate(-3.375 -7.617)" fill="#8f60ff"/>
    <path id="Path_2" data-name="Path 2" d="M19.454,22.108a4.226,4.226,0,0,0,3.039-1.275L34.69,8.419a2.443,2.443,0,0,0-1.539-.544H5.765a2.427,2.427,0,0,0-1.539.544l12.2,12.414A4.227,4.227,0,0,0,19.454,22.108Z" transform="translate(-3.285 -7.875)" fill="#8f60ff"/>
  </g>
</svg>
