<svg xmlns="http://www.w3.org/2000/svg" width="32.956" height="26.365" viewBox="0 0 32.956 26.365">
  <path id="Icon_awesome-github-alt" data-name="Icon awesome-github-alt" d="M12.777,22.674c0,1.435-.748,3.783-2.52,3.783s-2.52-2.348-2.52-3.783.748-3.783,2.52-3.783,2.52,2.348,2.52,3.783Zm20.178-3.467a14.88,14.88,0,0,1-1.2,6.523c-2.6,5.259-9.756,5.136-14.878,5.136-5.2,0-12.784.185-15.489-5.136A14.7,14.7,0,0,1,0,19.207a11.807,11.807,0,0,1,2.849-7.8,10.748,10.748,0,0,1-.529-3.351,6.837,6.837,0,0,1,1-3.556,10.728,10.728,0,0,1,7.47,2.472,26.3,26.3,0,0,1,6.09-.687,23.683,23.683,0,0,1,5.52.632A10.611,10.611,0,0,1,29.8,4.5a6.773,6.773,0,0,1,1,3.556,10.6,10.6,0,0,1-.529,3.309A11.83,11.83,0,0,1,32.956,19.207Zm-4.415,3.467c0-3.014-1.833-5.671-5.046-5.671a28.229,28.229,0,0,0-3.845.412,20.173,20.173,0,0,1-3.1.22,20.3,20.3,0,0,1-3.1-.22A27.771,27.771,0,0,0,9.612,17C6.4,17,4.566,19.66,4.566,22.674c0,6.028,5.52,6.955,10.326,6.955H18.2c4.827,0,10.34-.92,10.34-6.955ZM22.87,18.891c-1.771,0-2.52,2.348-2.52,3.783s.748,3.783,2.52,3.783,2.52-2.348,2.52-3.783S24.641,18.891,22.87,18.891Z" transform="translate(0 -4.5)" fill="#fff"/>
</svg>
