<svg xmlns="http://www.w3.org/2000/svg" width="30.759" height="30.758" viewBox="0 0 30.759 30.758">
  <path id="Icon_awesome-linkedin-in" data-name="Icon awesome-linkedin-in" d="M6.885,30.759H.508V10.223H6.885ZM3.693,7.422A3.711,3.711,0,1,1,7.386,3.694,3.724,3.724,0,0,1,3.693,7.422ZM30.752,30.759H24.388v-10c0-2.382-.048-5.438-3.315-5.438-3.315,0-3.824,2.588-3.824,5.266V30.759h-6.37V10.223H17v2.8h.089a6.7,6.7,0,0,1,6.034-3.316c6.454,0,7.64,4.25,7.64,9.77v11.28Z" transform="translate(0 -0.001)" fill="#fff"/>
</svg>
