<svg xmlns="http://www.w3.org/2000/svg" width="313.142" height="479.082" viewBox="0 0 313.142 479.082">
  <g id="Group_6" data-name="Group 6" transform="translate(-8520.036 -898.706)">
    <path id="Path_35" data-name="Path 35" d="M316.35,306.1c5.4.41,10.94,0,15.87,3a18.4,18.4,0,0,1,8.2,9.23q12.39,32.9,24.7,65.81l32,85c8,21.2,15.82,42.44,23.77,63.65q15.38,41,30.82,82c3,7.94,6.24,15.82,8.63,23.94,2.66,9-4.61,21.83-13.48,23.89-12.14,2.81-22.64-.55-27.63-13.81-11.49-30.51-22.81-61.09-34.26-91.62q-17.7-47.16-35.51-94.29-12.76-34-25.44-68c-1-2.79-2.14-5.58-3.48-9.09l-44.72,119h3.65c18.31,0,36.62.42,54.9-.14,13.19-.41,21,10.9,20.94,21-.05,10.32-6.58,19.7-16.08,21.12a26.6,26.6,0,0,1-3.78.29c-24,0-48,.06-71.93,0-2.63,0-3.85.64-4.83,3.28-9.55,25.82-19.3,51.56-29,77.34-2.64,7-5.31,14.06-7.85,21.14-3.86,10.8-13.4,15.67-24.38,14.48-11.36-1.24-20.66-16.1-15.58-29,10.39-26.34,20-53,29.95-79.48,1-2.73,1.93-5.5,2.89-8.25l3-7.68,9.94-26.46,2.71-8a8.481,8.481,0,0,0,.91-1.44c2.28-5.91,4.56-11.83,6.78-17.76q11.94-31.9,23.84-63.67,9.41-25.05,18.82-50.11c2.91-7.75,5.73-15.53,8.6-23.3l2.94-7.95c.39-.88.81-1.74,1.17-2.63q4.85-11.86,9.65-23.74c2.92-2,5.78-4.17,8.8-6.06a23.437,23.437,0,0,1,4.47-1.69Z" transform="translate(8372.281 714.248)" fill="#fff"/>
    <path id="Path_36" data-name="Path 36" d="M316.35,306.1a23.439,23.439,0,0,0-4.47,1.69c-3,1.89-5.88,4-8.8,6.06-12,.17-24,.46-36,.49-28.48.07-57,0-85.44,0-3.86,0-3.87,0-3.87-3.74V223.08c0-4.48,0-4.48,4.52-4.48q77.07,0,154.14-.06a10.32,10.32,0,0,0,4.93-1.25c4.88-2.77,5.72-7.4,5.59-12.6-.19-7.74-4.6-12.51-12.37-12.51q-83.08-.06-166.18,0c-3.55,0-6.91.87-9.47,3.79-3,3.43-3.45,7.59-3.44,11.77q.22,112.61.54,225.22c.07,31,.17,62.08-.11,93.12a12.35,12.35,0,0,0,12.79,12.77c16.34-.19,32.69-.05,49,0l-3,7.68h-47c-11.29,0-19.77-8.44-19.88-19.78v-.89q0-159.46-.07-318.95a31.291,31.291,0,0,1,.78-7.55c2.36-9.36,9.48-14.76,19.25-14.76H294.61c13.11,0,26.24.44,39.33-.12,14.33-.61,22.53,11.64,20.82,24.38-1.55,11.6-9,17.95-20.74,17.95H185.5v79.7H189l116.82-.29Z" transform="translate(8372.281 714.248)" fill="#fff"/>
    <path id="Path_37" data-name="Path 37" d="M217.71,538.82c-16.34,0-32.69-.15-49,0a12.35,12.35,0,0,1-12.79-12.77c.28-31,.18-62.08.11-93.12q-.24-112.61-.54-225.22c0-4.18.44-8.34,3.44-11.77,2.56-2.92,5.92-3.78,9.47-3.79q83.08-.08,166.18,0c7.77,0,12.18,4.77,12.37,12.51.13,5.2-.71,9.83-5.59,12.6a10.32,10.32,0,0,1-4.93,1.25q-77.07.11-154.14.06c-4.52,0-4.52,0-4.52,4.48v87.54c0,3.74,0,3.74,3.87,3.74,28.48,0,57,.05,85.44,0,12,0,24-.32,36-.49q-4.81,11.88-9.65,23.74c-.36.89-.78,1.75-1.17,2.63h-2.93q-54.27.28-108.54.53c-2.46,0-3.1.74-3.1,3.15q.1,82.52,0,165.05c0,2.78.95,3.48,3.58,3.46,15.46-.1,30.92,0,46.38,0Z" transform="translate(8372.281 714.248)" fill="#fff"/>
    <path id="Path_38" data-name="Path 38" d="M289.32,348.17H185.56V504.32h44.8l-2.71,8c-15.46,0-30.92-.05-46.38,0-2.63,0-3.58-.68-3.58-3.46q.1-82.53,0-165c0-2.41.64-3.14,3.1-3.15q54.27-.18,108.54-.53h2.93Z" transform="translate(8372.281 714.248)" fill="#fff"/>
  </g>
</svg>
