<svg xmlns="http://www.w3.org/2000/svg" width="28.65" height="28.65" viewBox="0 0 28.65 28.65">
  <path id="Icon_awesome-phone-alt" data-name="Icon awesome-phone-alt" d="M27.833,20.246,21.565,17.56A1.343,1.343,0,0,0,20,17.946l-2.775,3.391a20.741,20.741,0,0,1-9.915-9.915L10.7,8.646a1.34,1.34,0,0,0,.386-1.567L8.4.812A1.352,1.352,0,0,0,6.86.034L1.041,1.377A1.343,1.343,0,0,0,0,2.686,25.961,25.961,0,0,0,25.964,28.65a1.343,1.343,0,0,0,1.309-1.041l1.343-5.82A1.359,1.359,0,0,0,27.833,20.246Z" fill="#8f60ff"/>
</svg>
