<svg xmlns="http://www.w3.org/2000/svg" width="35" height="87.243" viewBox="0 0 35 87.243">
  <g id="Group_27950" data-name="Group 27950" transform="translate(-942.5 -883)">
    <g id="Rectangle_32" data-name="Rectangle 32" transform="translate(942.5 883)" fill="none" stroke="#8f60ff" stroke-width="2">
      <rect width="35" height="57" rx="17.5" stroke="none"/>
      <rect x="1" y="1" width="33" height="55" rx="16.5" fill="none"/>
    </g>
    <path id="Path_12204" data-name="Path 12204" d="M4283,1829.415v11.35" transform="translate(-3322.907 -935.25)" fill="none" stroke="#8f60ff" stroke-linecap="round" stroke-width="2"/>
    <path id="Icon_ionic-ios-arrow-round-down" data-name="Icon ionic-ios-arrow-round-down" d="M24.49,20.784a.919.919,0,0,0-1.294-.007l-4.282,4.268V8.782a.914.914,0,0,0-1.828,0V25.045L12.8,20.77a.925.925,0,0,0-1.294.007.91.91,0,0,0,.007,1.287l5.836,5.794h0a1.026,1.026,0,0,0,.288.19.872.872,0,0,0,.352.07.916.916,0,0,0,.64-.26l5.836-5.794A.9.9,0,0,0,24.49,20.784Z" transform="translate(942.002 942.125)" fill="#8f60ff"/>
  </g>
</svg>
