<svg width="727" height="184" viewBox="0 0 727 184" fill="none" xmlns="http://www.w3.org/2000/svg">
<path d="M5.92184 0.623769H28.1281C28.835 0.623769 29.438 0.852486 29.937 1.30992C30.436 1.76735 30.6855 2.34953 30.6855 3.05647C30.6855 3.76341 30.436 4.3456 29.937 4.80303C29.438 5.21888 28.835 5.4268 28.1281 5.4268H8.04266L8.60405 4.36639V20.1478L7.98028 19.4616H25.3211C26.028 19.4616 26.631 19.6903 27.13 20.1478C27.629 20.6052 27.8785 21.1874 27.8785 21.8943C27.8785 22.6013 27.629 23.1835 27.13 23.6409C26.631 24.0567 26.028 24.2647 25.3211 24.2647H8.16741L8.60405 23.7033V39.8589L8.22979 39.4223H28.1281C28.835 39.4223 29.438 39.6718 29.937 40.1708C30.436 40.6698 30.6855 41.2312 30.6855 41.855C30.6855 42.5619 30.436 43.1441 29.937 43.6015C29.438 44.059 28.835 44.2877 28.1281 44.2877H5.92184C5.2149 44.2877 4.61192 44.0382 4.1129 43.5392C3.65547 43.0401 3.42676 42.4372 3.42676 41.7302V3.11885C3.42676 2.41191 3.65547 1.82972 4.1129 1.37229C4.61192 0.873277 5.2149 0.623769 5.92184 0.623769Z" fill="white"/>
<path d="M69.6283 39.3599C70.3352 39.3599 70.9382 39.6094 71.4372 40.1084C71.9362 40.5658 72.1857 41.148 72.1857 41.855C72.1857 42.5619 71.9362 43.1441 71.4372 43.6015C70.9382 44.059 70.3352 44.2877 69.6283 44.2877H48.0458C47.3389 44.2877 46.7359 44.0382 46.2369 43.5392C45.7794 43.0401 45.5507 42.4372 45.5507 41.7302V3.11885C45.5507 2.41191 45.8002 1.82972 46.2993 1.37229C46.7983 0.873277 47.422 0.623769 48.1706 0.623769C48.8775 0.623769 49.4805 0.873277 49.9795 1.37229C50.4785 1.82972 50.728 2.41191 50.728 3.11885V40.4827L49.4805 39.3599H69.6283Z" fill="white"/>
<path d="M91.0855 41.7302C91.0855 42.4372 90.8152 43.0401 90.2746 43.5392C89.7755 44.0382 89.1726 44.2877 88.4656 44.2877C87.6755 44.2877 87.0517 44.0382 86.5943 43.5392C86.1369 43.0401 85.9082 42.4372 85.9082 41.7302V3.18123C85.9082 2.4327 86.1577 1.82972 86.6567 1.37229C87.1557 0.873277 87.7795 0.623769 88.528 0.623769C89.2349 0.623769 89.8379 0.873277 90.3369 1.37229C90.836 1.82972 91.0855 2.4327 91.0855 3.18123V41.7302Z" fill="white"/>
<path d="M137.98 0.623769C138.728 0.623769 139.373 0.852486 139.914 1.30992C140.454 1.76735 140.724 2.34953 140.724 3.05647C140.724 3.59708 140.537 4.11688 140.163 4.6159L113.341 39.9213L112.967 39.4846H137.73C138.437 39.4846 139.04 39.7134 139.539 40.1708C140.038 40.6282 140.288 41.1896 140.288 41.855C140.288 42.5619 140.038 43.1441 139.539 43.6015C139.04 44.059 138.437 44.2877 137.73 44.2877H108.725C107.976 44.2877 107.353 44.0174 106.854 43.4768C106.355 42.9362 106.105 42.3748 106.105 41.7926C106.105 41.252 106.292 40.7322 106.667 40.2332L133.426 5.05254L133.925 5.36443H110.596C109.889 5.36443 109.286 5.13571 108.787 4.67827C108.288 4.22084 108.039 3.65945 108.039 2.99409C108.039 2.28716 108.288 1.72577 108.787 1.30992C109.286 0.852486 109.889 0.623769 110.596 0.623769H137.98Z" fill="white"/>
<path d="M170.571 7.11098L155.912 42.7906C155.746 43.2896 155.455 43.6847 155.039 43.9758C154.623 44.2669 154.186 44.4124 153.729 44.4124C152.939 44.4124 152.357 44.2045 151.982 43.7887C151.608 43.3728 151.421 42.8738 151.421 42.2916C151.38 42.0005 151.421 41.6886 151.546 41.356L167.701 2.05844C167.909 1.47626 168.221 1.06041 168.637 0.810902C169.095 0.519808 169.594 0.395055 170.134 0.436642C170.675 0.436642 171.153 0.582188 171.569 0.873279C172.026 1.16437 172.338 1.55943 172.505 2.05844L188.598 40.9817C188.723 41.3144 188.785 41.647 188.785 41.9797C188.785 42.7283 188.535 43.3312 188.036 43.7887C187.537 44.2045 186.976 44.4124 186.352 44.4124C185.853 44.4124 185.396 44.2669 184.98 43.9758C184.564 43.6847 184.252 43.2689 184.044 42.7283L169.199 7.0486L170.571 7.11098ZM159.031 32.6232L161.152 27.7578H179.678L180.614 32.6232H159.031Z" fill="white"/>
<path d="M220.944 0.623769C224.603 0.623769 227.41 1.58022 229.365 3.49311C231.361 5.36442 232.359 8.02584 232.359 11.4774C232.359 13.3071 231.943 14.9913 231.111 16.5299C230.279 18.0685 229.053 19.2953 227.431 20.2102C225.851 21.125 223.896 21.624 221.567 21.7072L221.443 19.9606C222.898 19.9606 224.395 20.1686 225.934 20.5844C227.472 21.0003 228.886 21.6656 230.175 22.5805C231.506 23.4953 232.567 24.7013 233.357 26.1983C234.188 27.6954 234.604 29.5459 234.604 31.7499C234.604 34.1202 234.209 36.1163 233.419 37.7381C232.629 39.3183 231.569 40.6074 230.238 41.6055C228.949 42.5619 227.493 43.2481 225.871 43.6639C224.291 44.0798 222.69 44.2877 221.068 44.2877H204.663C203.956 44.2877 203.353 44.0382 202.854 43.5392C202.397 43.0401 202.168 42.4372 202.168 41.7302V3.11885C202.168 2.41191 202.397 1.82972 202.854 1.37229C203.353 0.873277 203.956 0.623769 204.663 0.623769H220.944ZM220.195 5.55155H206.784L207.533 4.42877V19.9606L206.846 19.1497H220.32C222.15 19.1497 223.709 18.5676 224.998 17.4032C226.329 16.1972 226.994 14.4299 226.994 12.1011C226.994 10.0219 226.391 8.4209 225.185 7.29811C223.979 6.13374 222.316 5.55155 220.195 5.55155ZM220.694 24.1399H207.096L207.533 23.7033V39.9837L207.034 39.4223H220.881C223.335 39.4223 225.331 38.7985 226.869 37.551C228.45 36.3034 229.24 34.3697 229.24 31.7499C229.24 29.7123 228.824 28.1528 227.992 27.0716C227.161 25.9488 226.079 25.1795 224.749 24.7637C223.46 24.3478 222.108 24.1399 220.694 24.1399Z" fill="white"/>
<path d="M251.965 0.623769H274.171C274.878 0.623769 275.481 0.852486 275.98 1.30992C276.479 1.76735 276.729 2.34953 276.729 3.05647C276.729 3.76341 276.479 4.3456 275.98 4.80303C275.481 5.21888 274.878 5.4268 274.171 5.4268H254.086L254.647 4.36639V20.1478L254.023 19.4616H271.364C272.071 19.4616 272.674 19.6903 273.173 20.1478C273.672 20.6052 273.922 21.1874 273.922 21.8943C273.922 22.6013 273.672 23.1835 273.173 23.6409C272.674 24.0567 272.071 24.2647 271.364 24.2647H254.211L254.647 23.7033V39.8589L254.273 39.4223H274.171C274.878 39.4223 275.481 39.6718 275.98 40.1708C276.479 40.6698 276.729 41.2312 276.729 41.855C276.729 42.5619 276.479 43.1441 275.98 43.6015C275.481 44.059 274.878 44.2877 274.171 44.2877H251.965C251.258 44.2877 250.655 44.0382 250.156 43.5392C249.699 43.0401 249.47 42.4372 249.47 41.7302V3.11885C249.47 2.41191 249.699 1.82972 250.156 1.37229C250.655 0.873277 251.258 0.623769 251.965 0.623769Z" fill="white"/>
<path d="M305.13 44.2877C304.381 44.2877 303.757 44.0382 303.258 43.5392C302.759 43.0401 302.51 42.4372 302.51 41.7302V3.18123H307.812V41.7302C307.812 42.4372 307.562 43.0401 307.063 43.5392C306.564 44.0382 305.92 44.2877 305.13 44.2877ZM290.658 5.36443C289.951 5.36443 289.348 5.1565 288.849 4.74066C288.392 4.28322 288.163 3.70104 288.163 2.99409C288.163 2.28716 288.392 1.72577 288.849 1.30992C289.348 0.852486 289.951 0.623769 290.658 0.623769H319.664C320.371 0.623769 320.973 0.852486 321.472 1.30992C321.972 1.72577 322.221 2.28716 322.221 2.99409C322.221 3.74262 321.972 4.32481 321.472 4.74066C320.973 5.1565 320.371 5.36443 319.664 5.36443H290.658Z" fill="white"/>
<path d="M375.099 7.11098L360.441 42.7906C360.274 43.2896 359.983 43.6847 359.567 43.9758C359.151 44.2669 358.715 44.4124 358.257 44.4124C357.467 44.4124 356.885 44.2045 356.511 43.7887C356.137 43.3728 355.949 42.8738 355.949 42.2916C355.908 42.0005 355.949 41.6886 356.074 41.356L372.23 2.05844C372.438 1.47626 372.75 1.06041 373.165 0.810902C373.623 0.519808 374.122 0.395055 374.663 0.436642C375.203 0.436642 375.681 0.582188 376.097 0.873279C376.555 1.16437 376.867 1.55943 377.033 2.05844L393.126 40.9817C393.251 41.3144 393.313 41.647 393.313 41.9797C393.313 42.7283 393.064 43.3312 392.565 43.7887C392.066 44.2045 391.504 44.4124 390.881 44.4124C390.382 44.4124 389.924 44.2669 389.508 43.9758C389.092 43.6847 388.781 43.2689 388.573 42.7283L373.727 7.0486L375.099 7.11098ZM363.559 32.6232L365.68 27.7578H384.206L385.142 32.6232H363.559Z" fill="white"/>
<path d="M439.008 0.623769C439.715 0.623769 440.276 0.852486 440.692 1.30992C441.108 1.72577 441.316 2.26637 441.316 2.93172V41.6678C441.316 42.458 441.066 43.1025 440.567 43.6015C440.068 44.059 439.465 44.2877 438.758 44.2877C438.384 44.2877 438.01 44.2253 437.636 44.1005C437.261 43.9342 436.97 43.7263 436.762 43.4768L410.065 8.17139L411.312 7.42287V41.9797C411.312 42.6451 411.084 43.2065 410.626 43.6639C410.21 44.0798 409.649 44.2877 408.942 44.2877C408.277 44.2877 407.736 44.0798 407.32 43.6639C406.904 43.2065 406.697 42.6451 406.697 41.9797V3.11885C406.697 2.37033 406.925 1.76735 407.383 1.30992C407.882 0.852486 408.464 0.623769 409.129 0.623769C409.504 0.623769 409.878 0.70694 410.252 0.873279C410.668 0.998034 410.98 1.20596 411.188 1.49705L437.511 36.3034L436.7 37.3015V2.93172C436.7 2.26637 436.908 1.72577 437.324 1.30992C437.781 0.852486 438.342 0.623769 439.008 0.623769Z" fill="white"/>
<path d="M478.709 44.9114C475.507 44.9114 472.534 44.3501 469.789 43.2273C467.086 42.0629 464.695 40.4619 462.616 38.4242C460.578 36.3866 458.977 34.0163 457.813 31.3133C456.69 28.5687 456.128 25.6162 456.128 22.4557C456.128 19.2537 456.69 16.3012 457.813 13.5982C458.977 10.8536 460.578 8.46248 462.616 6.42483C464.695 4.38718 467.086 2.80697 469.789 1.68418C472.534 0.561395 475.507 0 478.709 0C480.83 0 482.867 0.249507 484.822 0.748524C486.818 1.20595 488.627 1.93369 490.249 2.93172C490.664 3.13964 490.956 3.43073 491.122 3.805C491.33 4.17926 491.434 4.57431 491.434 4.99016C491.434 5.6971 491.184 6.30008 490.685 6.7991C490.228 7.29811 489.687 7.54762 489.063 7.54762C488.814 7.54762 488.564 7.50603 488.315 7.42287C488.107 7.3397 487.878 7.25652 487.629 7.17336C486.34 6.508 484.947 5.98819 483.449 5.61393C481.952 5.19808 480.372 4.99016 478.709 4.99016C475.424 4.99016 472.471 5.75948 469.851 7.29811C467.273 8.83674 465.235 10.916 463.738 13.5358C462.241 16.1556 461.493 19.1289 461.493 22.4557C461.493 25.7409 462.241 28.7142 463.738 31.3756C465.235 33.9955 467.273 36.0747 469.851 37.6133C472.471 39.152 475.424 39.9213 478.709 39.9213C480.372 39.9213 482.077 39.6926 483.824 39.2351C485.612 38.7777 487.13 38.1955 488.377 37.4886L487.941 38.9856V25.8241L488.939 26.6974H479.395C478.688 26.6974 478.085 26.4686 477.586 26.0112C477.129 25.5122 476.9 24.9092 476.9 24.2023C476.9 23.4953 477.129 22.9132 477.586 22.4557C478.085 21.9567 478.688 21.7072 479.395 21.7072H490.748C491.496 21.7072 492.099 21.9567 492.557 22.4557C493.014 22.9547 493.243 23.5577 493.243 24.2647V38.6737C493.243 39.1728 493.118 39.6094 492.868 39.9837C492.661 40.3579 492.369 40.6698 491.995 40.9193C490.124 42.1253 488.045 43.1025 485.757 43.851C483.512 44.558 481.162 44.9114 478.709 44.9114Z" fill="white"/>
<path d="M511.227 0.623769H533.433C534.14 0.623769 534.743 0.852486 535.242 1.30992C535.741 1.76735 535.99 2.34953 535.99 3.05647C535.99 3.76341 535.741 4.3456 535.242 4.80303C534.743 5.21888 534.14 5.4268 533.433 5.4268H513.348L513.909 4.36639V20.1478L513.285 19.4616H530.626C531.333 19.4616 531.936 19.6903 532.435 20.1478C532.934 20.6052 533.183 21.1874 533.183 21.8943C533.183 22.6013 532.934 23.1835 532.435 23.6409C531.936 24.0567 531.333 24.2647 530.626 24.2647H513.472L513.909 23.7033V39.8589L513.535 39.4223H533.433C534.14 39.4223 534.743 39.6718 535.242 40.1708C535.741 40.6698 535.99 41.2312 535.99 41.855C535.99 42.5619 535.741 43.1441 535.242 43.6015C534.743 44.059 534.14 44.2877 533.433 44.2877H511.227C510.52 44.2877 509.917 44.0382 509.418 43.5392C508.96 43.0401 508.732 42.4372 508.732 41.7302V3.11885C508.732 2.41191 508.96 1.82972 509.418 1.37229C509.917 0.873277 510.52 0.623769 511.227 0.623769Z" fill="white"/>
<path d="M574.933 39.3599C575.64 39.3599 576.243 39.6094 576.742 40.1084C577.241 40.5658 577.491 41.148 577.491 41.855C577.491 42.5619 577.241 43.1441 576.742 43.6015C576.243 44.059 575.64 44.2877 574.933 44.2877H553.351C552.644 44.2877 552.041 44.0382 551.542 43.5392C551.084 43.0401 550.856 42.4372 550.856 41.7302V3.11885C550.856 2.41191 551.105 1.82972 551.604 1.37229C552.103 0.873277 552.727 0.623769 553.475 0.623769C554.182 0.623769 554.785 0.873277 555.284 1.37229C555.783 1.82972 556.033 2.41191 556.033 3.11885V40.4827L554.785 39.3599H574.933Z" fill="white"/>
<path d="M629.964 22.4557C629.964 25.6577 629.444 28.631 628.404 31.3756C627.365 34.0786 625.909 36.449 624.038 38.4866C622.167 40.5243 619.942 42.1045 617.364 43.2273C614.785 44.3501 611.978 44.9114 608.943 44.9114C605.866 44.9114 603.038 44.3501 600.46 43.2273C597.923 42.1045 595.719 40.5243 593.848 38.4866C591.976 36.449 590.521 34.0786 589.481 31.3756C588.442 28.631 587.922 25.6577 587.922 22.4557C587.922 19.2121 588.442 16.2388 589.481 13.5358C590.521 10.7912 591.976 8.4209 593.848 6.42483C595.719 4.38718 597.923 2.80697 600.46 1.68418C603.038 0.561395 605.866 0 608.943 0C611.978 0 614.785 0.561395 617.364 1.68418C619.942 2.80697 622.167 4.38718 624.038 6.42483C625.909 8.4209 627.365 10.7912 628.404 13.5358C629.444 16.2388 629.964 19.2121 629.964 22.4557ZM624.599 22.4557C624.599 19.0458 623.913 16.0309 622.541 13.4111C621.21 10.7912 619.381 8.73278 617.052 7.23573C614.723 5.73869 612.02 4.99016 608.943 4.99016C605.866 4.99016 603.142 5.73869 600.771 7.23573C598.443 8.73278 596.613 10.7912 595.282 13.4111C593.952 16.0309 593.286 19.0458 593.286 22.4557C593.286 25.8241 593.952 28.839 595.282 31.5004C596.613 34.1202 598.443 36.1787 600.771 37.6757C603.142 39.1728 605.866 39.9213 608.943 39.9213C612.02 39.9213 614.723 39.1728 617.052 37.6757C619.381 36.1787 621.21 34.1202 622.541 31.5004C623.913 28.839 624.599 25.8241 624.599 22.4557Z" fill="white"/>
<path d="M675.807 0.561392C676.513 0.561392 677.116 0.790108 677.615 1.24754C678.114 1.66339 678.364 2.22478 678.364 2.93172C678.364 3.2644 678.281 3.63866 678.115 4.0545L661.834 42.6659C661.585 43.2065 661.231 43.6223 660.774 43.9134C660.358 44.1629 659.9 44.2877 659.401 44.2877C658.944 44.2461 658.507 44.1005 658.091 43.851C657.676 43.5599 657.364 43.1649 657.156 42.6659L640.938 4.11688C640.855 3.95054 640.792 3.78421 640.751 3.61787C640.709 3.40994 640.688 3.20202 640.688 2.99409C640.688 2.20399 640.959 1.60101 641.499 1.18516C642.081 0.727731 642.643 0.499017 643.183 0.499017C644.306 0.499017 645.117 1.0812 645.616 2.24557L660.524 37.8005H659.089L673.499 2.12082C673.998 1.0812 674.767 0.561392 675.807 0.561392Z" fill="white"/>
<path d="M705.359 7.11098L690.7 42.7906C690.534 43.2896 690.243 43.6847 689.827 43.9758C689.411 44.2669 688.974 44.4124 688.517 44.4124C687.727 44.4124 687.145 44.2045 686.77 43.7887C686.396 43.3728 686.209 42.8738 686.209 42.2916C686.167 42.0005 686.209 41.6886 686.334 41.356L702.489 2.05844C702.697 1.47626 703.009 1.06041 703.425 0.810902C703.882 0.519808 704.381 0.395055 704.922 0.436642C705.463 0.436642 705.941 0.582188 706.357 0.873279C706.814 1.16437 707.126 1.55943 707.292 2.05844L723.386 40.9817C723.51 41.3144 723.573 41.647 723.573 41.9797C723.573 42.7283 723.323 43.3312 722.824 43.7887C722.325 44.2045 721.764 44.4124 721.14 44.4124C720.641 44.4124 720.184 44.2669 719.768 43.9758C719.352 43.6847 719.04 43.2689 718.832 42.7283L703.986 7.0486L705.359 7.11098ZM693.819 32.6232L695.94 27.7578H714.466L715.401 32.6232H693.819Z" fill="white"/>
<path d="M18.0497 116.911C13.3338 116.911 9.64656 115.59 6.98794 112.948C4.32931 110.306 3 106.533 3 101.63V82.9114H10.691V101.344C10.691 104.527 11.3398 106.82 12.6375 108.22C13.9352 109.621 15.7551 110.321 18.0972 110.321C20.4393 110.321 22.2592 109.621 23.5569 108.22C24.8545 106.82 25.5033 104.527 25.5033 101.344V82.9114H33.0994V101.63C33.0994 106.533 31.7701 110.306 29.1115 112.948C26.4529 115.59 22.7656 116.911 18.0497 116.911Z" fill="#7000FF"/>
<path d="M37.3874 116.338L51.6775 96.5209V102.156L38.0046 82.9114H46.7401L56.1877 96.3299L52.5321 96.3777L61.8372 82.9114H70.1929L56.6149 101.821V96.2822L71 116.338H62.1221L52.3422 102.156H55.8553L46.2178 116.338H37.3874Z" fill="#7000FF"/>
<path d="M89 105.911C87.912 105.911 86.904 105.658 85.976 105.152C85.08 104.615 84.36 103.903 83.816 103.018C83.272 102.101 83 101.058 83 99.8877C83 98.7177 83.272 97.69 83.816 96.8047C84.36 95.9193 85.08 95.2236 85.976 94.7177C86.904 94.1802 87.912 93.9114 89 93.9114C90.088 93.9114 91.08 94.1802 91.976 94.7177C92.904 95.2236 93.64 95.9193 94.184 96.8047C94.728 97.69 95 98.7177 95 99.8877C95 101.058 94.728 102.101 94.184 103.018C93.64 103.903 92.904 104.615 91.976 105.152C91.08 105.658 90.088 105.911 89 105.911Z" fill="#7000FF"/>
<path d="M122.264 116.911C117.481 116.911 113.741 115.59 111.045 112.948C108.348 110.306 107 106.533 107 101.63V82.9114H114.801V101.344C114.801 104.527 115.459 106.82 116.775 108.22C118.091 109.621 119.937 110.321 122.312 110.321C124.688 110.321 126.533 109.621 127.85 108.22C129.166 106.82 129.824 104.527 129.824 101.344V82.9114H137.528V101.63C137.528 106.533 136.18 110.306 133.483 112.948C130.787 115.59 127.047 116.911 122.264 116.911Z" fill="#7000FF"/>
<path d="M146.199 116.338V82.9114H154V116.338H146.199Z" fill="#7000FF"/>
<path d="M171.5 105.911C170.503 105.911 169.579 105.658 168.728 105.152C167.907 104.615 167.247 103.903 166.748 103.018C166.249 102.101 166 101.058 166 99.8877C166 98.7177 166.249 97.69 166.748 96.8047C167.247 95.9193 167.907 95.2236 168.728 94.7177C169.579 94.1802 170.503 93.9114 171.5 93.9114C172.497 93.9114 173.407 94.1802 174.228 94.7177C175.079 95.2236 175.753 95.9193 176.252 96.8047C176.751 97.69 177 98.7177 177 99.8877C177 101.058 176.751 102.101 176.252 103.018C175.753 103.903 175.079 104.615 174.228 105.152C173.407 105.658 172.497 105.911 171.5 105.911Z" fill="#7000FF"/>
<path d="M189 117.315V82.5081H203.504C206.503 82.5081 209.088 83.0219 211.258 84.0495C213.428 85.044 215.103 86.486 216.284 88.3755C217.465 90.265 218.055 92.5191 218.055 95.1379C218.055 97.7235 217.465 99.9611 216.284 101.851C215.103 103.74 213.428 105.199 211.258 106.226C209.088 107.221 206.503 107.718 203.504 107.718H193.308L196.754 104.088V117.315H189ZM196.754 104.983L193.308 101.154H203.073C205.466 101.154 207.253 100.624 208.434 99.5633C209.615 98.5025 210.205 97.0274 210.205 95.1379C210.205 93.2152 209.615 91.7235 208.434 90.6628C207.253 89.602 205.466 89.0716 203.073 89.0716H193.308L196.754 85.2429V104.983Z" fill="#7000FF"/>
<path d="M224.549 117.315V82.5081H239.052C242.052 82.5081 244.637 83.0219 246.807 84.0495C248.977 85.044 250.652 86.486 251.833 88.3755C253.013 90.265 253.604 92.5191 253.604 95.1379C253.604 97.7235 253.013 99.9611 251.833 101.851C250.652 103.707 248.977 105.132 246.807 106.127C244.637 107.121 242.052 107.619 239.052 107.619H228.857L232.303 104.088V117.315H224.549ZM245.849 117.315L237.473 104.685H245.754L254.226 117.315H245.849ZM232.303 104.983L228.857 101.204H238.621C241.015 101.204 242.802 100.674 243.983 99.613C245.163 98.5191 245.754 97.0274 245.754 95.1379C245.754 93.2152 245.163 91.7235 243.983 90.6628C242.802 89.602 241.015 89.0716 238.621 89.0716H228.857L232.303 85.2429V104.983Z" fill="#7000FF"/>
<path d="M276.98 117.911C274.331 117.911 271.874 117.464 269.608 116.569C267.374 115.674 265.428 114.414 263.768 112.79C262.141 111.166 260.864 109.259 259.939 107.072C259.046 104.884 258.599 102.497 258.599 99.9114C258.599 97.3257 259.046 94.939 259.939 92.7512C260.864 90.5633 262.157 88.6572 263.816 87.0329C265.476 85.4086 267.422 84.1489 269.656 83.2539C271.89 82.3589 274.315 81.9114 276.932 81.9114C279.58 81.9114 282.006 82.3589 284.208 83.2539C286.441 84.1489 288.372 85.4086 289.999 87.0329C291.659 88.6572 292.951 90.5633 293.877 92.7512C294.802 94.9059 295.265 97.2926 295.265 99.9114C295.265 102.497 294.802 104.9 293.877 107.121C292.951 109.309 291.659 111.215 289.999 112.84C288.372 114.431 286.441 115.674 284.208 116.569C282.006 117.464 279.596 117.911 276.98 117.911ZM276.932 111.049C278.432 111.049 279.804 110.784 281.048 110.254C282.325 109.724 283.442 108.961 284.399 107.967C285.356 106.972 286.09 105.795 286.601 104.436C287.143 103.077 287.415 101.569 287.415 99.9114C287.415 98.2539 287.143 96.7456 286.601 95.3865C286.09 94.0274 285.356 92.8506 284.399 91.8561C283.474 90.8617 282.373 90.0992 281.096 89.5688C279.82 89.0384 278.432 88.7733 276.932 88.7733C275.432 88.7733 274.044 89.0384 272.767 89.5688C271.523 90.0992 270.422 90.8617 269.465 91.8561C268.507 92.8506 267.757 94.0274 267.215 95.3865C266.704 96.7456 266.449 98.2539 266.449 99.9114C266.449 101.536 266.704 103.044 267.215 104.436C267.757 105.795 268.491 106.972 269.417 107.967C270.374 108.961 271.491 109.724 272.767 110.254C274.044 110.784 275.432 111.049 276.932 111.049Z" fill="#7000FF"/>
<path d="M302.05 117.315V82.5081H317.272C320.909 82.5081 324.117 83.2373 326.893 84.6959C329.669 86.1213 331.839 88.1268 333.403 90.7125C334.966 93.2981 335.748 96.3644 335.748 99.9114C335.748 103.425 334.966 106.491 333.403 109.11C331.839 111.696 329.669 113.718 326.893 115.177C324.117 116.602 320.909 117.315 317.272 117.315H302.05ZM309.804 110.701H316.889C319.122 110.701 321.053 110.27 322.681 109.409C324.34 108.514 325.616 107.254 326.51 105.63C327.435 104.005 327.898 102.099 327.898 99.9114C327.898 97.6904 327.435 95.7843 326.51 94.1931C325.616 92.5688 324.34 91.3257 322.681 90.4639C321.053 89.5688 319.122 89.1213 316.889 89.1213H309.804V110.701Z" fill="#7000FF"/>
<path d="M357.44 117.911C352.685 117.911 348.968 116.536 346.287 113.784C343.607 111.033 342.266 107.105 342.266 102V82.5081H350.021V101.701C350.021 105.016 350.675 107.403 351.983 108.862C353.292 110.32 355.127 111.049 357.488 111.049C359.849 111.049 361.684 110.32 362.993 108.862C364.301 107.403 364.955 105.016 364.955 101.701V82.5081H372.614V102C372.614 107.105 371.274 111.033 368.593 113.784C365.913 116.536 362.195 117.911 357.44 117.911Z" fill="#7000FF"/>
<path d="M397.269 117.911C394.685 117.911 392.275 117.48 390.042 116.619C387.84 115.724 385.925 114.464 384.298 112.84C382.67 111.215 381.394 109.309 380.468 107.121C379.575 104.933 379.128 102.53 379.128 99.9114C379.128 97.2926 379.575 94.8893 380.468 92.7014C381.394 90.5136 382.67 88.6075 384.298 86.9832C385.957 85.3589 387.888 84.1158 390.089 83.2539C392.291 82.3589 394.701 81.9114 397.317 81.9114C400.221 81.9114 402.838 82.4418 405.167 83.5025C407.529 84.5302 409.507 86.055 411.103 88.0771L406.125 92.8506C404.976 91.4915 403.7 90.4804 402.295 89.8175C400.891 89.1213 399.36 88.7733 397.7 88.7733C396.137 88.7733 394.701 89.0384 393.392 89.5688C392.084 90.0992 390.951 90.8617 389.994 91.8561C389.036 92.8506 388.286 94.0274 387.744 95.3865C387.233 96.7456 386.978 98.2539 386.978 99.9114C386.978 101.569 387.233 103.077 387.744 104.436C388.286 105.795 389.036 106.972 389.994 107.967C390.951 108.961 392.084 109.724 393.392 110.254C394.701 110.784 396.137 111.049 397.7 111.049C399.36 111.049 400.891 110.718 402.295 110.055C403.7 109.359 404.976 108.315 406.125 106.922L411.103 111.696C409.507 113.718 407.529 115.259 405.167 116.32C402.838 117.381 400.205 117.911 397.269 117.911Z" fill="#7000FF"/>
<path d="M423.91 117.315V89.0716H413.188V82.5081H442.387V89.0716H431.665V117.315H423.91Z" fill="#7000FF"/>
<path d="M462.03 117.315V82.5081H477.252C480.889 82.5081 484.097 83.2373 486.873 84.6959C489.649 86.1213 491.819 88.1268 493.383 90.7125C494.946 93.2981 495.728 96.3644 495.728 99.9114C495.728 103.425 494.946 106.491 493.383 109.11C491.819 111.696 489.649 113.718 486.873 115.177C484.097 116.602 480.889 117.315 477.252 117.315H462.03ZM469.784 110.701H476.869C479.102 110.701 481.033 110.27 482.661 109.409C484.32 108.514 485.596 107.254 486.49 105.63C487.415 104.005 487.878 102.099 487.878 99.9114C487.878 97.6904 487.415 95.7843 486.49 94.1931C485.596 92.5688 484.32 91.3257 482.661 90.4639C481.033 89.5688 479.102 89.1213 476.869 89.1213H469.784V110.701Z" fill="#7000FF"/>
<path d="M509.666 96.5302H525.797V102.795H509.666V96.5302ZM510.24 110.851H528.477V117.315H502.534V82.5081H527.855V88.9721H510.24V110.851Z" fill="#7000FF"/>
<path d="M546.614 117.911C543.934 117.911 541.365 117.547 538.907 116.817C536.45 116.055 534.472 115.077 532.972 113.884L535.605 107.817C537.041 108.878 538.732 109.757 540.679 110.453C542.657 111.116 544.652 111.447 546.662 111.447C548.194 111.447 549.422 111.298 550.348 111C551.305 110.668 552.007 110.221 552.454 109.657C552.901 109.094 553.124 108.447 553.124 107.718C553.124 106.79 552.773 106.061 552.071 105.53C551.369 104.967 550.443 104.519 549.295 104.188C548.146 103.823 546.869 103.491 545.465 103.193C544.093 102.862 542.705 102.464 541.301 102C539.929 101.536 538.668 100.939 537.519 100.21C536.371 99.4804 535.429 98.5191 534.695 97.3257C533.993 96.1324 533.642 94.6075 533.642 92.7512C533.642 90.7622 534.153 88.9556 535.174 87.3313C536.227 85.6738 537.791 84.3644 539.865 83.4031C541.971 82.4086 544.604 81.9114 547.763 81.9114C549.869 81.9114 551.943 82.1766 553.986 82.707C556.028 83.2042 557.831 83.9666 559.394 84.9942L557.001 91.1103C555.438 90.1821 553.874 89.5025 552.31 89.0716C550.747 88.6075 549.215 88.3755 547.715 88.3755C546.215 88.3755 544.987 88.5578 544.029 88.9224C543.072 89.2871 542.386 89.7677 541.971 90.3644C541.556 90.9279 541.349 91.5909 541.349 92.3534C541.349 93.2484 541.7 93.9777 542.402 94.5412C543.104 95.0716 544.029 95.5025 545.178 95.834C546.327 96.1655 547.587 96.497 548.96 96.8285C550.364 97.16 551.752 97.5412 553.124 97.9721C554.528 98.4031 555.805 98.9832 556.953 99.7125C558.102 100.442 559.028 101.403 559.73 102.596C560.464 103.79 560.831 105.298 560.831 107.121C560.831 109.077 560.304 110.867 559.251 112.491C558.198 114.116 556.618 115.425 554.512 116.42C552.438 117.414 549.805 117.911 546.614 117.911Z" fill="#7000FF"/>
<path d="M567.086 117.315V82.5081H574.841V117.315H567.086Z" fill="#7000FF"/>
<path d="M599.929 117.911C597.28 117.911 594.839 117.48 592.606 116.619C590.404 115.724 588.473 114.464 586.814 112.84C585.186 111.215 583.91 109.309 582.984 107.121C582.091 104.933 581.644 102.53 581.644 99.9114C581.644 97.2926 582.091 94.8893 582.984 92.7014C583.91 90.5136 585.202 88.6075 586.861 86.9832C588.521 85.3589 590.467 84.1158 592.701 83.2539C594.935 82.3589 597.392 81.9114 600.073 81.9114C603.04 81.9114 605.705 82.4252 608.067 83.4528C610.46 84.4804 612.47 85.9721 614.098 87.928L609.12 92.7014C607.907 91.3755 606.583 90.3976 605.147 89.7677C603.711 89.1047 602.147 88.7733 600.456 88.7733C598.828 88.7733 597.344 89.0384 596.004 89.5688C594.664 90.0992 593.499 90.8617 592.51 91.8561C591.552 92.8506 590.803 94.0274 590.26 95.3865C589.749 96.7456 589.494 98.2539 589.494 99.9114C589.494 101.536 589.749 103.027 590.26 104.387C590.803 105.746 591.552 106.939 592.51 107.967C593.499 108.961 594.648 109.724 595.956 110.254C597.296 110.784 598.764 111.049 600.36 111.049C601.892 111.049 603.376 110.801 604.812 110.304C606.279 109.773 607.7 108.895 609.072 107.668L613.475 113.486C611.657 114.911 609.534 116.005 607.109 116.768C604.716 117.53 602.322 117.911 599.929 117.911ZM606.391 112.442V99.3644H613.475V113.486L606.391 112.442Z" fill="#7000FF"/>
<path d="M621.636 117.315V82.5081H628.05L647.819 107.569H644.708V82.5081H652.367V117.315H646L626.183 92.2539H629.295V117.315H621.636Z" fill="#7000FF"/>
<path d="M668.384 96.5302H684.515V102.795H668.384V96.5302ZM668.958 110.851H687.195V117.315H661.251V82.5081H686.573V88.9721H668.958V110.851Z" fill="#7000FF"/>
<path d="M694.323 117.315V82.5081H708.826C711.826 82.5081 714.411 83.0219 716.581 84.0495C718.751 85.044 720.426 86.486 721.607 88.3755C722.787 90.265 723.378 92.5191 723.378 95.1379C723.378 97.7235 722.787 99.9611 721.607 101.851C720.426 103.707 718.751 105.132 716.581 106.127C714.411 107.121 711.826 107.619 708.826 107.619H698.631L702.077 104.088V117.315H694.323ZM715.623 117.315L707.247 104.685H715.528L724 117.315H715.623ZM702.077 104.983L698.631 101.204H708.395C710.789 101.204 712.576 100.674 713.756 99.613C714.937 98.5191 715.528 97.0274 715.528 95.1379C715.528 93.2152 714.937 91.7235 713.756 90.6628C712.576 89.602 710.789 89.0716 708.395 89.0716H698.631L702.077 85.2429V104.983Z" fill="#7000FF"/>
<path d="M21.9619 159.142C22.3223 159.142 22.6264 159.266 22.8742 159.514C23.1445 159.761 23.2796 160.088 23.2796 160.493C23.2796 160.584 23.2684 160.685 23.2458 160.798C23.2458 160.888 23.2233 160.978 23.1783 161.068L17.975 176.036C17.8623 176.329 17.6709 176.554 17.4006 176.711C17.1528 176.869 16.8825 176.937 16.5897 176.914C16.0716 176.892 15.6774 176.599 15.4071 176.036L11.1499 165.359L11.8256 165.46L7.97386 176.036C7.72609 176.599 7.3319 176.892 6.7913 176.914C6.49847 176.937 6.21691 176.869 5.94661 176.711C5.67631 176.554 5.49611 176.329 5.40601 176.036L0.101363 161.068C0.0337875 160.865 0 160.674 0 160.493C0 160.133 0.123888 159.818 0.371663 159.547C0.619438 159.277 0.957314 159.142 1.38529 159.142C1.65559 159.142 1.90336 159.209 2.12862 159.345C2.35387 159.48 2.51154 159.694 2.60164 159.987L7.16296 173.299L6.45342 173.265L10.4066 163.129C10.6318 162.566 11.0485 162.284 11.6567 162.284C11.9721 162.284 12.2198 162.363 12.4 162.521C12.6028 162.656 12.7492 162.859 12.8393 163.129L16.9613 173.265L16.1167 173.333L20.678 159.987C20.8807 159.423 21.3087 159.142 21.9619 159.142Z" fill="#B5B5B5"/>
<path d="M30.2005 175.529C30.2005 175.912 30.0654 176.238 29.7951 176.509C29.5473 176.779 29.2319 176.914 28.849 176.914C28.4436 176.914 28.117 176.779 27.8692 176.509C27.6214 176.238 27.4975 175.912 27.4975 175.529V160.527C27.4975 160.144 27.6214 159.829 27.8692 159.581C28.1395 159.311 28.4661 159.176 28.849 159.176C29.2319 159.176 29.5473 159.311 29.7951 159.581C30.0654 159.829 30.2005 160.144 30.2005 160.527V175.529ZM28.849 156.912C28.2859 156.912 27.8692 156.799 27.5989 156.574C27.3286 156.349 27.1934 156 27.1934 155.527V155.054C27.1934 154.581 27.3398 154.231 27.6327 154.006C27.9255 153.781 28.3422 153.668 28.8828 153.668C29.4234 153.668 29.8289 153.781 30.0992 154.006C30.3695 154.231 30.5046 154.581 30.5046 155.054V155.527C30.5046 156 30.3582 156.349 30.0654 156.574C29.7951 156.799 29.3896 156.912 28.849 156.912Z" fill="#B5B5B5"/>
<path d="M35.0559 159.547H42.996C43.3564 159.547 43.6492 159.671 43.8744 159.919C44.1222 160.167 44.2461 160.46 44.2461 160.798C44.2461 161.158 44.1222 161.462 43.8744 161.71C43.6492 161.935 43.3564 162.048 42.996 162.048H35.0559C34.718 162.048 34.4252 161.924 34.1774 161.676C33.9296 161.428 33.8058 161.124 33.8058 160.764C33.8058 160.426 33.9296 160.144 34.1774 159.919C34.4252 159.671 34.718 159.547 35.0559 159.547ZM38.6036 154.952C38.9865 154.952 39.3019 155.087 39.5496 155.358C39.7974 155.605 39.9213 155.921 39.9213 156.304V172.623C39.9213 173.164 40.0001 173.569 40.1578 173.839C40.3155 174.11 40.5182 174.301 40.766 174.414C41.0363 174.504 41.2953 174.549 41.5431 174.549C41.7684 174.549 41.9598 174.515 42.1175 174.448C42.2977 174.358 42.5004 174.313 42.7257 174.313C42.9509 174.313 43.1536 174.425 43.3338 174.65C43.5366 174.853 43.6379 175.123 43.6379 175.461C43.6379 175.867 43.4014 176.216 42.9284 176.509C42.4554 176.779 41.926 176.914 41.3404 176.914C41.025 176.914 40.6308 176.892 40.1578 176.847C39.7073 176.802 39.2568 176.655 38.8063 176.407C38.3558 176.16 37.9729 175.754 37.6575 175.191C37.3647 174.605 37.2183 173.794 37.2183 172.758V156.304C37.2183 155.921 37.3534 155.605 37.6237 155.358C37.894 155.087 38.2207 154.952 38.6036 154.952Z" fill="#B5B5B5"/>
<path d="M57.1287 159.176C58.6153 159.176 59.7866 159.502 60.6426 160.156C61.521 160.786 62.1405 161.642 62.5009 162.723C62.8838 163.782 63.0753 164.965 63.0753 166.271V175.529C63.0753 175.912 62.9401 176.238 62.6698 176.509C62.422 176.779 62.1067 176.914 61.7238 176.914C61.3408 176.914 61.0142 176.779 60.7439 176.509C60.4962 176.238 60.3723 175.912 60.3723 175.529V166.271C60.3723 165.415 60.2484 164.649 60.0006 163.974C59.7528 163.275 59.3361 162.723 58.7505 162.318C58.1873 161.89 57.4102 161.676 56.4191 161.676C55.4956 161.676 54.6509 161.89 53.8851 162.318C53.1192 162.723 52.511 163.275 52.0605 163.974C51.61 164.649 51.3848 165.415 51.3848 166.271V175.529C51.3848 175.912 51.2496 176.238 50.9793 176.509C50.7316 176.779 50.4162 176.914 50.0333 176.914C49.6504 176.914 49.3237 176.779 49.0534 176.509C48.8057 176.238 48.6818 175.912 48.6818 175.529V153.263C48.6818 152.88 48.8057 152.565 49.0534 152.317C49.3237 152.047 49.6504 151.911 50.0333 151.911C50.4387 151.911 50.7653 152.047 51.0131 152.317C51.2609 152.565 51.3848 152.88 51.3848 153.263V163.365L50.709 164.109C50.8217 163.523 51.0694 162.937 51.4524 162.352C51.8353 161.744 52.3196 161.203 52.9052 160.73C53.4909 160.257 54.1441 159.885 54.8649 159.615C55.5857 159.322 56.3403 159.176 57.1287 159.176Z" fill="#B5B5B5"/>
<path d="M93.133 159.277C93.5159 159.277 93.8313 159.412 94.079 159.683C94.3493 159.93 94.4845 160.246 94.4845 160.629V175.529C94.4845 175.912 94.3493 176.238 94.079 176.509C93.8313 176.779 93.5159 176.914 93.133 176.914C92.7275 176.914 92.4009 176.779 92.1531 176.509C91.9054 176.238 91.7815 175.912 91.7815 175.529V172.319L92.4234 172.251C92.4234 172.747 92.2545 173.288 91.9166 173.873C91.5788 174.459 91.117 175.011 90.5313 175.529C89.9457 176.024 89.2474 176.441 88.4365 176.779C87.6481 177.094 86.7922 177.252 85.8687 177.252C84.337 177.252 82.9629 176.858 81.7466 176.069C80.5302 175.259 79.5617 174.166 78.8409 172.792C78.1426 171.418 77.7934 169.853 77.7934 168.096C77.7934 166.316 78.1426 164.751 78.8409 163.399C79.5617 162.025 80.5302 160.955 81.7466 160.189C82.9629 159.401 84.3144 159.007 85.8011 159.007C86.7697 159.007 87.6707 159.164 88.5041 159.48C89.3375 159.795 90.0583 160.223 90.6665 160.764C91.2972 161.304 91.7815 161.901 92.1194 162.554C92.4798 163.208 92.66 163.861 92.66 164.514L91.7815 164.311V160.629C91.7815 160.246 91.9054 159.93 92.1531 159.683C92.4009 159.412 92.7275 159.277 93.133 159.277ZM86.1727 174.752C87.299 174.752 88.2901 174.459 89.146 173.873C90.0245 173.288 90.7003 172.499 91.1733 171.508C91.6689 170.495 91.9166 169.357 91.9166 168.096C91.9166 166.857 91.6689 165.742 91.1733 164.751C90.7003 163.737 90.0245 162.949 89.146 162.386C88.2901 161.8 87.299 161.507 86.1727 161.507C85.069 161.507 84.0779 161.789 83.1994 162.352C82.3435 162.915 81.6677 163.692 81.1722 164.683C80.6766 165.674 80.4289 166.812 80.4289 168.096C80.4289 169.357 80.6654 170.495 81.1384 171.508C81.634 172.499 82.3097 173.288 83.1657 173.873C84.0441 174.459 85.0465 174.752 86.1727 174.752Z" fill="#B5B5B5"/>
<path d="M118.766 159.007C120.298 159.007 121.672 159.401 122.888 160.189C124.104 160.955 125.062 162.014 125.76 163.365C126.481 164.717 126.841 166.282 126.841 168.062C126.841 169.841 126.481 171.418 125.76 172.792C125.062 174.166 124.104 175.259 122.888 176.069C121.694 176.858 120.343 177.252 118.833 177.252C118 177.252 117.212 177.128 116.468 176.88C115.747 176.61 115.083 176.261 114.475 175.833C113.889 175.382 113.394 174.898 112.988 174.38C112.583 173.839 112.29 173.31 112.11 172.792L112.853 172.319V175.698C112.853 176.081 112.729 176.407 112.481 176.678C112.234 176.948 111.907 177.083 111.502 177.083C111.119 177.083 110.792 176.959 110.522 176.711C110.274 176.441 110.15 176.103 110.15 175.698V153.297C110.15 152.914 110.274 152.587 110.522 152.317C110.792 152.047 111.119 151.911 111.502 151.911C111.907 151.911 112.234 152.047 112.481 152.317C112.729 152.587 112.853 152.914 112.853 153.297V163.703L112.346 163.433C112.504 162.87 112.774 162.329 113.157 161.811C113.563 161.271 114.047 160.798 114.61 160.392C115.196 159.964 115.838 159.626 116.536 159.378C117.257 159.131 118 159.007 118.766 159.007ZM118.462 161.507C117.336 161.507 116.333 161.789 115.455 162.352C114.599 162.915 113.923 163.692 113.427 164.683C112.954 165.674 112.718 166.8 112.718 168.062C112.718 169.323 112.954 170.461 113.427 171.474C113.923 172.488 114.599 173.288 115.455 173.873C116.333 174.459 117.336 174.752 118.462 174.752C119.588 174.752 120.579 174.459 121.435 173.873C122.291 173.288 122.967 172.488 123.462 171.474C123.958 170.461 124.206 169.323 124.206 168.062C124.206 166.8 123.958 165.674 123.462 164.683C122.967 163.692 122.291 162.915 121.435 162.352C120.579 161.789 119.588 161.507 118.462 161.507Z" fill="#B5B5B5"/>
<path d="M145.974 159.277C146.356 159.277 146.672 159.412 146.92 159.683C147.19 159.93 147.325 160.246 147.325 160.629V175.529C147.325 175.912 147.19 176.238 146.92 176.509C146.672 176.779 146.356 176.914 145.974 176.914C145.568 176.914 145.241 176.779 144.994 176.509C144.746 176.238 144.622 175.912 144.622 175.529V172.319L145.264 172.251C145.264 172.747 145.095 173.288 144.757 173.873C144.419 174.459 143.958 175.011 143.372 175.529C142.786 176.024 142.088 176.441 141.277 176.779C140.489 177.094 139.633 177.252 138.709 177.252C137.178 177.252 135.803 176.858 134.587 176.069C133.371 175.259 132.402 174.166 131.681 172.792C130.983 171.418 130.634 169.853 130.634 168.096C130.634 166.316 130.983 164.751 131.681 163.399C132.402 162.025 133.371 160.955 134.587 160.189C135.803 159.401 137.155 159.007 138.642 159.007C139.61 159.007 140.511 159.164 141.345 159.48C142.178 159.795 142.899 160.223 143.507 160.764C144.138 161.304 144.622 161.901 144.96 162.554C145.32 163.208 145.501 163.861 145.501 164.514L144.622 164.311V160.629C144.622 160.246 144.746 159.93 144.994 159.683C145.241 159.412 145.568 159.277 145.974 159.277ZM139.013 174.752C140.14 174.752 141.131 174.459 141.987 173.873C142.865 173.288 143.541 172.499 144.014 171.508C144.509 170.495 144.757 169.357 144.757 168.096C144.757 166.857 144.509 165.742 144.014 164.751C143.541 163.737 142.865 162.949 141.987 162.386C141.131 161.8 140.14 161.507 139.013 161.507C137.91 161.507 136.918 161.789 136.04 162.352C135.184 162.915 134.508 163.692 134.013 164.683C133.517 165.674 133.269 166.812 133.269 168.096C133.269 169.357 133.506 170.495 133.979 171.508C134.475 172.499 135.15 173.288 136.006 173.873C136.885 174.459 137.887 174.752 139.013 174.752Z" fill="#B5B5B5"/>
<path d="M160.781 159.007C161.93 159.007 162.966 159.131 163.89 159.378C164.813 159.626 165.545 159.964 166.086 160.392C166.626 160.82 166.897 161.304 166.897 161.845C166.897 162.138 166.795 162.419 166.593 162.69C166.39 162.96 166.12 163.095 165.782 163.095C165.466 163.095 165.207 163.039 165.005 162.926C164.824 162.813 164.644 162.667 164.464 162.487C164.306 162.307 164.081 162.149 163.788 162.014C163.518 161.856 163.124 161.732 162.606 161.642C162.088 161.552 161.57 161.507 161.051 161.507C159.813 161.507 158.72 161.8 157.774 162.386C156.851 162.971 156.119 163.76 155.578 164.751C155.037 165.742 154.767 166.868 154.767 168.129C154.767 169.391 155.026 170.517 155.544 171.508C156.062 172.499 156.783 173.288 157.707 173.873C158.63 174.459 159.7 174.752 160.916 174.752C161.705 174.752 162.335 174.684 162.808 174.549C163.281 174.414 163.676 174.256 163.991 174.076C164.396 173.851 164.701 173.626 164.903 173.4C165.129 173.175 165.421 173.062 165.782 173.062C166.165 173.062 166.457 173.186 166.66 173.434C166.885 173.682 166.998 173.986 166.998 174.346C166.998 174.752 166.717 175.18 166.153 175.63C165.59 176.081 164.824 176.464 163.856 176.779C162.91 177.094 161.829 177.252 160.612 177.252C158.9 177.252 157.402 176.858 156.119 176.069C154.835 175.259 153.832 174.166 153.111 172.792C152.413 171.396 152.064 169.841 152.064 168.129C152.064 166.417 152.424 164.875 153.145 163.501C153.889 162.126 154.913 161.034 156.22 160.223C157.526 159.412 159.047 159.007 160.781 159.007Z" fill="#B5B5B5"/>
<path d="M172.828 176.914C172.423 176.914 172.096 176.779 171.848 176.509C171.601 176.238 171.477 175.912 171.477 175.529V153.263C171.477 152.88 171.601 152.565 171.848 152.317C172.096 152.047 172.423 151.911 172.828 151.911C173.211 151.911 173.527 152.047 173.774 152.317C174.045 152.565 174.18 152.88 174.18 153.263V175.529C174.18 175.912 174.045 176.238 173.774 176.509C173.527 176.779 173.211 176.914 172.828 176.914ZM184.046 159.345C184.406 159.345 184.71 159.491 184.958 159.784C185.228 160.054 185.363 160.336 185.363 160.629C185.363 161.011 185.183 161.349 184.823 161.642L173.876 171.204L173.774 168.062L183.1 159.75C183.37 159.48 183.685 159.345 184.046 159.345ZM184.417 176.88C184.034 176.88 183.697 176.734 183.404 176.441L176.207 168.771L178.234 166.913L185.363 174.549C185.634 174.842 185.769 175.18 185.769 175.563C185.769 175.968 185.611 176.295 185.296 176.542C184.981 176.768 184.688 176.88 184.417 176.88Z" fill="#B5B5B5"/>
<path d="M197.692 159.007C198.66 159.007 199.561 159.176 200.395 159.514C201.228 159.829 201.949 160.246 202.557 160.764C203.188 161.282 203.672 161.822 204.01 162.386C204.37 162.949 204.551 163.478 204.551 163.974L203.909 163.568V160.629C203.909 160.246 204.032 159.93 204.28 159.683C204.528 159.412 204.855 159.277 205.26 159.277C205.643 159.277 205.958 159.412 206.206 159.683C206.476 159.93 206.612 160.246 206.612 160.629V175.428C206.612 177.275 206.217 178.806 205.429 180.023C204.663 181.239 203.627 182.151 202.321 182.759C201.014 183.368 199.55 183.672 197.928 183.672C197.252 183.672 196.509 183.582 195.698 183.401C194.887 183.221 194.167 182.996 193.536 182.726C192.905 182.478 192.5 182.219 192.319 181.949C191.982 181.723 191.768 181.464 191.678 181.171C191.61 180.901 191.666 180.642 191.846 180.394C192.049 180.079 192.308 179.921 192.624 179.921C192.961 179.921 193.378 180.023 193.874 180.225C194.076 180.293 194.392 180.406 194.82 180.563C195.27 180.721 195.766 180.856 196.306 180.969C196.87 181.104 197.421 181.171 197.962 181.171C199.877 181.171 201.341 180.665 202.354 179.651C203.391 178.66 203.909 177.342 203.909 175.698V172.556L204.28 172.725C204.145 173.355 203.864 173.941 203.436 174.481C203.03 175.022 202.523 175.506 201.915 175.934C201.329 176.34 200.676 176.666 199.955 176.914C199.235 177.139 198.503 177.252 197.759 177.252C196.183 177.252 194.763 176.858 193.502 176.069C192.241 175.281 191.238 174.2 190.495 172.826C189.774 171.452 189.414 169.886 189.414 168.129C189.414 166.35 189.774 164.773 190.495 163.399C191.238 162.025 192.229 160.955 193.468 160.189C194.73 159.401 196.137 159.007 197.692 159.007ZM198.03 161.507C196.881 161.507 195.845 161.8 194.921 162.386C194.02 162.949 193.311 163.726 192.793 164.717C192.297 165.708 192.049 166.845 192.049 168.129C192.049 169.368 192.297 170.495 192.793 171.508C193.311 172.499 194.02 173.288 194.921 173.873C195.845 174.459 196.881 174.752 198.03 174.752C199.201 174.752 200.237 174.47 201.138 173.907C202.039 173.321 202.749 172.533 203.267 171.542C203.785 170.551 204.044 169.413 204.044 168.129C204.044 166.823 203.785 165.674 203.267 164.683C202.749 163.692 202.039 162.915 201.138 162.352C200.237 161.789 199.201 161.507 198.03 161.507Z" fill="#B5B5B5"/>
<path d="M213.636 176.914C213.253 176.914 212.927 176.779 212.656 176.509C212.409 176.238 212.285 175.912 212.285 175.529V160.798C212.285 160.415 212.409 160.099 212.656 159.851C212.927 159.581 213.253 159.446 213.636 159.446C214.042 159.446 214.368 159.581 214.616 159.851C214.864 160.099 214.988 160.415 214.988 160.798V165.257L214.582 164.548C214.717 163.85 214.954 163.174 215.292 162.521C215.652 161.845 216.103 161.248 216.643 160.73C217.184 160.189 217.803 159.773 218.502 159.48C219.2 159.164 219.966 159.007 220.799 159.007C221.295 159.007 221.745 159.131 222.151 159.378C222.579 159.604 222.793 159.93 222.793 160.358C222.793 160.831 222.669 161.18 222.421 161.406C222.173 161.631 221.892 161.744 221.576 161.744C221.284 161.744 221.002 161.687 220.732 161.575C220.461 161.439 220.123 161.372 219.718 161.372C219.155 161.372 218.592 161.53 218.029 161.845C217.488 162.138 216.981 162.566 216.508 163.129C216.058 163.692 215.686 164.334 215.393 165.055C215.123 165.753 214.988 166.508 214.988 167.318V175.529C214.988 175.912 214.853 176.238 214.582 176.509C214.335 176.779 214.019 176.914 213.636 176.914Z" fill="#B5B5B5"/>
<path d="M242.352 168.129C242.352 169.886 241.958 171.452 241.17 172.826C240.404 174.2 239.357 175.281 238.028 176.069C236.721 176.858 235.246 177.252 233.602 177.252C231.957 177.252 230.471 176.858 229.142 176.069C227.813 175.281 226.754 174.2 225.966 172.826C225.2 171.452 224.817 169.886 224.817 168.129C224.817 166.372 225.2 164.807 225.966 163.433C226.754 162.059 227.813 160.978 229.142 160.189C230.471 159.401 231.957 159.007 233.602 159.007C235.246 159.007 236.721 159.401 238.028 160.189C239.357 160.978 240.404 162.059 241.17 163.433C241.958 164.807 242.352 166.372 242.352 168.129ZM239.649 168.129C239.649 166.823 239.379 165.674 238.839 164.683C238.321 163.692 237.6 162.915 236.676 162.352C235.775 161.789 234.75 161.507 233.602 161.507C232.453 161.507 231.417 161.789 230.493 162.352C229.592 162.915 228.871 163.692 228.331 164.683C227.79 165.674 227.52 166.823 227.52 168.129C227.52 169.413 227.79 170.551 228.331 171.542C228.871 172.533 229.592 173.321 230.493 173.907C231.417 174.47 232.453 174.752 233.602 174.752C234.75 174.752 235.775 174.47 236.676 173.907C237.6 173.321 238.321 172.533 238.839 171.542C239.379 170.551 239.649 169.413 239.649 168.129Z" fill="#B5B5B5"/>
<path d="M260.17 159.446C260.575 159.446 260.902 159.581 261.149 159.851C261.397 160.099 261.521 160.415 261.521 160.798V170.021C261.521 172.297 260.879 174.065 259.595 175.326C258.334 176.565 256.566 177.184 254.291 177.184C252.038 177.184 250.27 176.565 248.986 175.326C247.725 174.065 247.094 172.297 247.094 170.021V160.798C247.094 160.415 247.218 160.099 247.466 159.851C247.736 159.581 248.062 159.446 248.445 159.446C248.851 159.446 249.177 159.581 249.425 159.851C249.673 160.099 249.797 160.415 249.797 160.798V170.021C249.797 171.553 250.191 172.713 250.979 173.502C251.768 174.29 252.872 174.684 254.291 174.684C255.755 174.684 256.87 174.29 257.636 173.502C258.424 172.713 258.818 171.553 258.818 170.021V160.798C258.818 160.415 258.942 160.099 259.19 159.851C259.46 159.581 259.787 159.446 260.17 159.446Z" fill="#B5B5B5"/>
<path d="M275.887 159.007C277.419 159.007 278.624 159.322 279.503 159.953C280.381 160.584 281.001 161.428 281.361 162.487C281.744 163.546 281.935 164.728 281.935 166.035V175.529C281.935 175.912 281.8 176.238 281.53 176.509C281.282 176.779 280.967 176.914 280.584 176.914C280.201 176.914 279.874 176.779 279.604 176.509C279.356 176.238 279.232 175.912 279.232 175.529V166.102C279.232 165.246 279.097 164.48 278.827 163.805C278.579 163.106 278.151 162.554 277.543 162.149C276.957 161.721 276.146 161.507 275.11 161.507C274.164 161.507 273.297 161.721 272.509 162.149C271.72 162.554 271.09 163.106 270.617 163.805C270.144 164.48 269.907 165.246 269.907 166.102V175.529C269.907 175.912 269.772 176.238 269.502 176.509C269.254 176.779 268.938 176.914 268.556 176.914C268.173 176.914 267.846 176.779 267.576 176.509C267.328 176.238 267.204 175.912 267.204 175.529V160.798C267.204 160.415 267.328 160.099 267.576 159.851C267.846 159.581 268.173 159.446 268.556 159.446C268.961 159.446 269.288 159.581 269.535 159.851C269.783 160.099 269.907 160.415 269.907 160.798V163.196L269.231 163.94C269.344 163.354 269.603 162.768 270.008 162.183C270.414 161.575 270.921 161.034 271.529 160.561C272.137 160.088 272.813 159.716 273.556 159.446C274.299 159.153 275.077 159.007 275.887 159.007Z" fill="#B5B5B5"/>
<path d="M302.005 151.911C302.388 151.911 302.703 152.047 302.951 152.317C303.221 152.565 303.356 152.88 303.356 153.263V175.529C303.356 175.912 303.221 176.238 302.951 176.509C302.703 176.779 302.388 176.914 302.005 176.914C301.599 176.914 301.273 176.779 301.025 176.509C300.777 176.238 300.653 175.912 300.653 175.529V172.319L301.295 172.083C301.295 172.623 301.126 173.198 300.788 173.806C300.45 174.391 299.989 174.943 299.403 175.461C298.817 175.979 298.119 176.407 297.308 176.745C296.52 177.083 295.664 177.252 294.74 177.252C293.231 177.252 291.857 176.858 290.618 176.069C289.402 175.281 288.433 174.2 287.713 172.826C287.014 171.452 286.665 169.886 286.665 168.129C286.665 166.35 287.014 164.773 287.713 163.399C288.433 162.025 289.402 160.955 290.618 160.189C291.835 159.401 293.186 159.007 294.673 159.007C295.619 159.007 296.509 159.164 297.342 159.48C298.175 159.795 298.896 160.223 299.504 160.764C300.135 161.304 300.631 161.901 300.991 162.554C301.351 163.208 301.532 163.861 301.532 164.514L300.653 164.311V153.263C300.653 152.88 300.777 152.565 301.025 152.317C301.273 152.047 301.599 151.911 302.005 151.911ZM295.044 174.752C296.171 174.752 297.162 174.47 298.018 173.907C298.896 173.321 299.572 172.533 300.045 171.542C300.541 170.528 300.788 169.391 300.788 168.129C300.788 166.845 300.541 165.708 300.045 164.717C299.572 163.726 298.896 162.949 298.018 162.386C297.162 161.8 296.171 161.507 295.044 161.507C293.941 161.507 292.95 161.8 292.071 162.386C291.215 162.949 290.539 163.726 290.044 164.717C289.548 165.708 289.301 166.845 289.301 168.129C289.301 169.368 289.548 170.495 290.044 171.508C290.539 172.499 291.215 173.288 292.071 173.873C292.95 174.459 293.941 174.752 295.044 174.752Z" fill="#B5B5B5"/>
<path d="M321.623 175.529C321.623 175.912 321.488 176.238 321.218 176.509C320.97 176.779 320.655 176.914 320.272 176.914C319.866 176.914 319.54 176.779 319.292 176.509C319.044 176.238 318.92 175.912 318.92 175.529V160.527C318.92 160.144 319.044 159.829 319.292 159.581C319.562 159.311 319.889 159.176 320.272 159.176C320.655 159.176 320.97 159.311 321.218 159.581C321.488 159.829 321.623 160.144 321.623 160.527V175.529ZM320.272 156.912C319.709 156.912 319.292 156.799 319.022 156.574C318.751 156.349 318.616 156 318.616 155.527V155.054C318.616 154.581 318.763 154.231 319.055 154.006C319.348 153.781 319.765 153.668 320.306 153.668C320.846 153.668 321.252 153.781 321.522 154.006C321.792 154.231 321.927 154.581 321.927 155.054V155.527C321.927 156 321.781 156.349 321.488 156.574C321.218 156.799 320.812 156.912 320.272 156.912Z" fill="#B5B5B5"/>
<path d="M335.838 159.007C337.37 159.007 338.575 159.322 339.453 159.953C340.332 160.584 340.951 161.428 341.311 162.487C341.694 163.546 341.886 164.728 341.886 166.035V175.529C341.886 175.912 341.751 176.238 341.48 176.509C341.233 176.779 340.917 176.914 340.534 176.914C340.151 176.914 339.825 176.779 339.555 176.509C339.307 176.238 339.183 175.912 339.183 175.529V166.102C339.183 165.246 339.048 164.48 338.777 163.805C338.53 163.106 338.102 162.554 337.493 162.149C336.908 161.721 336.097 161.507 335.061 161.507C334.115 161.507 333.248 161.721 332.459 162.149C331.671 162.554 331.04 163.106 330.567 163.805C330.094 164.48 329.857 165.246 329.857 166.102V175.529C329.857 175.912 329.722 176.238 329.452 176.509C329.204 176.779 328.889 176.914 328.506 176.914C328.123 176.914 327.796 176.779 327.526 176.509C327.278 176.238 327.154 175.912 327.154 175.529V160.798C327.154 160.415 327.278 160.099 327.526 159.851C327.796 159.581 328.123 159.446 328.506 159.446C328.911 159.446 329.238 159.581 329.486 159.851C329.734 160.099 329.857 160.415 329.857 160.798V163.196L329.182 163.94C329.294 163.354 329.553 162.768 329.959 162.183C330.364 161.575 330.871 161.034 331.479 160.561C332.087 160.088 332.763 159.716 333.507 159.446C334.25 159.153 335.027 159.007 335.838 159.007Z" fill="#B5B5B5"/>
<path d="M356.562 174.144C356.36 173.851 356.27 173.547 356.292 173.231C356.315 172.893 356.506 172.601 356.866 172.353C357.092 172.195 357.351 172.128 357.644 172.15C357.959 172.173 358.24 172.319 358.488 172.589C359.119 173.333 359.84 173.93 360.651 174.38C361.462 174.808 362.453 175.022 363.624 175.022C364.165 175 364.705 174.909 365.246 174.752C365.786 174.594 366.237 174.324 366.597 173.941C366.98 173.535 367.172 173.006 367.172 172.353C367.172 171.722 366.98 171.227 366.597 170.866C366.214 170.483 365.719 170.179 365.111 169.954C364.502 169.706 363.838 169.492 363.117 169.312C362.374 169.109 361.642 168.884 360.921 168.636C360.2 168.366 359.547 168.039 358.961 167.656C358.398 167.251 357.936 166.755 357.576 166.17C357.238 165.562 357.069 164.829 357.069 163.974C357.069 162.96 357.339 162.081 357.88 161.338C358.443 160.595 359.186 160.02 360.11 159.615C361.056 159.209 362.081 159.007 363.185 159.007C363.815 159.007 364.469 159.086 365.144 159.243C365.843 159.378 366.518 159.626 367.172 159.987C367.825 160.324 368.399 160.797 368.895 161.406C369.098 161.631 369.21 161.912 369.233 162.25C369.255 162.588 369.109 162.892 368.793 163.163C368.546 163.343 368.264 163.422 367.949 163.399C367.656 163.377 367.408 163.264 367.205 163.061C366.732 162.498 366.135 162.07 365.415 161.777C364.716 161.462 363.939 161.304 363.083 161.304C362.543 161.304 362.013 161.383 361.495 161.541C360.977 161.699 360.538 161.969 360.178 162.352C359.84 162.712 359.671 163.219 359.671 163.872C359.693 164.48 359.896 164.976 360.279 165.359C360.662 165.742 361.18 166.057 361.833 166.305C362.486 166.53 363.207 166.755 363.996 166.981C364.716 167.161 365.403 167.375 366.057 167.623C366.732 167.848 367.341 168.152 367.881 168.535C368.422 168.918 368.85 169.413 369.165 170.021C369.48 170.607 369.638 171.35 369.638 172.251C369.638 173.288 369.345 174.189 368.76 174.954C368.174 175.698 367.397 176.272 366.428 176.678C365.482 177.061 364.457 177.252 363.354 177.252C362.115 177.252 360.887 177.016 359.671 176.542C358.477 176.069 357.441 175.27 356.562 174.144Z" fill="#B5B5B5"/>
<path d="M390.81 168.129C390.81 169.886 390.416 171.452 389.628 172.826C388.862 174.2 387.815 175.281 386.486 176.069C385.179 176.858 383.704 177.252 382.059 177.252C380.415 177.252 378.928 176.858 377.6 176.069C376.271 175.281 375.212 174.2 374.423 172.826C373.658 171.452 373.275 169.886 373.275 168.129C373.275 166.372 373.658 164.807 374.423 163.433C375.212 162.059 376.271 160.978 377.6 160.189C378.928 159.401 380.415 159.007 382.059 159.007C383.704 159.007 385.179 159.401 386.486 160.189C387.815 160.978 388.862 162.059 389.628 163.433C390.416 164.807 390.81 166.372 390.81 168.129ZM388.107 168.129C388.107 166.823 387.837 165.674 387.297 164.683C386.778 163.692 386.058 162.915 385.134 162.352C384.233 161.789 383.208 161.507 382.059 161.507C380.911 161.507 379.875 161.789 378.951 162.352C378.05 162.915 377.329 163.692 376.789 164.683C376.248 165.674 375.978 166.823 375.978 168.129C375.978 169.413 376.248 170.551 376.789 171.542C377.329 172.533 378.05 173.321 378.951 173.907C379.875 174.47 380.911 174.752 382.059 174.752C383.208 174.752 384.233 174.47 385.134 173.907C386.058 173.321 386.778 172.533 387.297 171.542C387.837 170.551 388.107 169.413 388.107 168.129Z" fill="#B5B5B5"/>
<path d="M402.85 151.979C403.233 151.979 403.627 152.024 404.032 152.114C404.46 152.204 404.821 152.362 405.114 152.587C405.429 152.812 405.587 153.116 405.587 153.499C405.587 153.86 405.474 154.164 405.249 154.412C405.024 154.637 404.753 154.75 404.438 154.75C404.235 154.75 403.954 154.693 403.593 154.581C403.233 154.445 402.861 154.378 402.478 154.378C401.96 154.378 401.532 154.49 401.194 154.716C400.879 154.941 400.642 155.245 400.485 155.628C400.35 155.988 400.282 156.394 400.282 156.844V175.529C400.282 175.912 400.147 176.238 399.877 176.509C399.629 176.779 399.313 176.914 398.931 176.914C398.525 176.914 398.198 176.779 397.951 176.509C397.703 176.238 397.579 175.912 397.579 175.529V156.878C397.579 155.369 398.041 154.175 398.964 153.297C399.91 152.418 401.206 151.979 402.85 151.979ZM403.796 159.716C404.156 159.716 404.46 159.84 404.708 160.088C404.956 160.313 405.08 160.606 405.08 160.966C405.08 161.327 404.956 161.631 404.708 161.879C404.46 162.104 404.156 162.217 403.796 162.217H395.315C394.955 162.217 394.651 162.093 394.403 161.845C394.155 161.597 394.031 161.304 394.031 160.966C394.031 160.584 394.155 160.279 394.403 160.054C394.651 159.829 394.955 159.716 395.315 159.716H403.796Z" fill="#B5B5B5"/>
<path d="M408.684 159.547H416.624C416.985 159.547 417.277 159.671 417.503 159.919C417.75 160.167 417.874 160.46 417.874 160.798C417.874 161.158 417.75 161.462 417.503 161.71C417.277 161.935 416.985 162.048 416.624 162.048H408.684C408.346 162.048 408.053 161.924 407.806 161.676C407.558 161.428 407.434 161.124 407.434 160.764C407.434 160.426 407.558 160.144 407.806 159.919C408.053 159.671 408.346 159.547 408.684 159.547ZM412.232 154.952C412.615 154.952 412.93 155.087 413.178 155.358C413.426 155.605 413.55 155.921 413.55 156.304V172.623C413.55 173.164 413.628 173.569 413.786 173.839C413.944 174.11 414.146 174.301 414.394 174.414C414.664 174.504 414.924 174.549 415.171 174.549C415.397 174.549 415.588 174.515 415.746 174.448C415.926 174.358 416.129 174.313 416.354 174.313C416.579 174.313 416.782 174.425 416.962 174.65C417.165 174.853 417.266 175.123 417.266 175.461C417.266 175.867 417.03 176.216 416.557 176.509C416.084 176.779 415.554 176.914 414.969 176.914C414.653 176.914 414.259 176.892 413.786 176.847C413.335 176.802 412.885 176.655 412.435 176.407C411.984 176.16 411.601 175.754 411.286 175.191C410.993 174.605 410.846 173.794 410.846 172.758V156.304C410.846 155.921 410.982 155.605 411.252 155.358C411.522 155.087 411.849 154.952 412.232 154.952Z" fill="#B5B5B5"/>
<path d="M444.273 159.142C444.634 159.142 444.938 159.266 445.185 159.514C445.456 159.761 445.591 160.088 445.591 160.493C445.591 160.584 445.58 160.685 445.557 160.798C445.557 160.888 445.535 160.978 445.49 161.068L440.286 176.036C440.174 176.329 439.982 176.554 439.712 176.711C439.464 176.869 439.194 176.937 438.901 176.914C438.383 176.892 437.989 176.599 437.718 176.036L433.461 165.359L434.137 165.46L430.285 176.036C430.037 176.599 429.643 176.892 429.103 176.914C428.81 176.937 428.528 176.869 428.258 176.711C427.988 176.554 427.807 176.329 427.717 176.036L422.413 161.068C422.345 160.865 422.311 160.674 422.311 160.493C422.311 160.133 422.435 159.818 422.683 159.547C422.931 159.277 423.269 159.142 423.697 159.142C423.967 159.142 424.215 159.209 424.44 159.345C424.665 159.48 424.823 159.694 424.913 159.987L429.474 173.299L428.765 173.265L432.718 163.129C432.943 162.566 433.36 162.284 433.968 162.284C434.283 162.284 434.531 162.363 434.711 162.521C434.914 162.656 435.06 162.859 435.151 163.129L439.273 173.265L438.428 173.333L442.989 159.987C443.192 159.423 443.62 159.142 444.273 159.142Z" fill="#B5B5B5"/>
<path d="M464.436 159.277C464.819 159.277 465.134 159.412 465.382 159.683C465.652 159.93 465.787 160.246 465.787 160.629V175.529C465.787 175.912 465.652 176.238 465.382 176.509C465.134 176.779 464.819 176.914 464.436 176.914C464.03 176.914 463.704 176.779 463.456 176.509C463.208 176.238 463.084 175.912 463.084 175.529V172.319L463.726 172.251C463.726 172.747 463.557 173.288 463.219 173.873C462.881 174.459 462.42 175.011 461.834 175.529C461.248 176.024 460.55 176.441 459.739 176.779C458.951 177.094 458.095 177.252 457.171 177.252C455.64 177.252 454.266 176.858 453.049 176.069C451.833 175.259 450.864 174.166 450.144 172.792C449.445 171.418 449.096 169.853 449.096 168.096C449.096 166.316 449.445 164.751 450.144 163.399C450.864 162.025 451.833 160.955 453.049 160.189C454.266 159.401 455.617 159.007 457.104 159.007C458.072 159.007 458.973 159.164 459.807 159.48C460.64 159.795 461.361 160.223 461.969 160.764C462.6 161.304 463.084 161.901 463.422 162.554C463.782 163.208 463.963 163.861 463.963 164.514L463.084 164.311V160.629C463.084 160.246 463.208 159.93 463.456 159.683C463.704 159.412 464.03 159.277 464.436 159.277ZM457.475 174.752C458.602 174.752 459.593 174.459 460.449 173.873C461.327 173.288 462.003 172.499 462.476 171.508C462.971 170.495 463.219 169.357 463.219 168.096C463.219 166.857 462.971 165.742 462.476 164.751C462.003 163.737 461.327 162.949 460.449 162.386C459.593 161.8 458.602 161.507 457.475 161.507C456.372 161.507 455.381 161.789 454.502 162.352C453.646 162.915 452.97 163.692 452.475 164.683C451.979 165.674 451.731 166.812 451.731 168.096C451.731 169.357 451.968 170.495 452.441 171.508C452.937 172.499 453.612 173.288 454.468 173.873C455.347 174.459 456.349 174.752 457.475 174.752Z" fill="#B5B5B5"/>
<path d="M472.824 176.914C472.441 176.914 472.114 176.779 471.844 176.509C471.596 176.238 471.472 175.912 471.472 175.529V160.798C471.472 160.415 471.596 160.099 471.844 159.851C472.114 159.581 472.441 159.446 472.824 159.446C473.229 159.446 473.556 159.581 473.803 159.851C474.051 160.099 474.175 160.415 474.175 160.798V165.257L473.77 164.548C473.905 163.85 474.141 163.174 474.479 162.521C474.84 161.845 475.29 161.248 475.831 160.73C476.371 160.189 476.991 159.773 477.689 159.48C478.387 159.164 479.153 159.007 479.987 159.007C480.482 159.007 480.933 159.131 481.338 159.378C481.766 159.604 481.98 159.93 481.98 160.358C481.98 160.831 481.856 161.18 481.608 161.406C481.361 161.631 481.079 161.744 480.764 161.744C480.471 161.744 480.189 161.687 479.919 161.575C479.649 161.439 479.311 161.372 478.905 161.372C478.342 161.372 477.779 161.53 477.216 161.845C476.675 162.138 476.169 162.566 475.696 163.129C475.245 163.692 474.873 164.334 474.581 165.055C474.31 165.753 474.175 166.508 474.175 167.318V175.529C474.175 175.912 474.04 176.238 473.77 176.509C473.522 176.779 473.207 176.914 472.824 176.914Z" fill="#B5B5B5"/>
<path d="M493.025 177.252C491.223 177.252 489.647 176.869 488.295 176.103C486.944 175.337 485.885 174.29 485.119 172.961C484.376 171.61 484.004 170.055 484.004 168.298C484.004 166.339 484.387 164.672 485.153 163.298C485.941 161.901 486.955 160.843 488.194 160.122C489.455 159.378 490.784 159.007 492.181 159.007C493.217 159.007 494.219 159.198 495.188 159.581C496.156 159.964 497.012 160.527 497.756 161.271C498.499 161.991 499.096 162.87 499.546 163.906C499.997 164.92 500.233 166.057 500.256 167.318C500.256 167.679 500.121 167.983 499.851 168.231C499.58 168.479 499.265 168.602 498.904 168.602H485.558L484.95 166.271H497.958L497.418 166.744V166.001C497.328 165.077 497.012 164.289 496.472 163.636C495.954 162.96 495.312 162.442 494.546 162.081C493.803 161.721 493.014 161.541 492.181 161.541C491.505 161.541 490.829 161.665 490.154 161.912C489.5 162.138 488.903 162.521 488.363 163.061C487.845 163.579 487.417 164.255 487.079 165.089C486.763 165.922 486.606 166.924 486.606 168.096C486.606 169.402 486.865 170.551 487.383 171.542C487.923 172.533 488.667 173.321 489.613 173.907C490.559 174.47 491.663 174.752 492.924 174.752C493.712 174.752 494.399 174.65 494.985 174.448C495.571 174.245 496.078 173.997 496.506 173.704C496.934 173.389 497.294 173.074 497.587 172.758C497.88 172.556 498.161 172.454 498.431 172.454C498.769 172.454 499.04 172.567 499.242 172.792C499.468 173.017 499.58 173.288 499.58 173.603C499.58 173.986 499.4 174.324 499.04 174.617C498.409 175.315 497.553 175.934 496.472 176.475C495.391 176.993 494.242 177.252 493.025 177.252Z" fill="#B5B5B5"/>
<path d="M529.368 151.911C529.751 151.911 530.067 152.047 530.314 152.317C530.585 152.565 530.72 152.88 530.72 153.263V175.529C530.72 175.912 530.585 176.238 530.314 176.509C530.067 176.779 529.751 176.914 529.368 176.914C528.963 176.914 528.636 176.779 528.389 176.509C528.141 176.238 528.017 175.912 528.017 175.529V172.319L528.659 172.083C528.659 172.623 528.49 173.198 528.152 173.806C527.814 174.391 527.352 174.943 526.767 175.461C526.181 175.979 525.483 176.407 524.672 176.745C523.884 177.083 523.028 177.252 522.104 177.252C520.595 177.252 519.221 176.858 517.982 176.069C516.766 175.281 515.797 174.2 515.076 172.826C514.378 171.452 514.029 169.886 514.029 168.129C514.029 166.35 514.378 164.773 515.076 163.399C515.797 162.025 516.766 160.955 517.982 160.189C519.198 159.401 520.55 159.007 522.037 159.007C522.983 159.007 523.872 159.164 524.706 159.48C525.539 159.795 526.26 160.223 526.868 160.764C527.499 161.304 527.994 161.901 528.355 162.554C528.715 163.208 528.895 163.861 528.895 164.514L528.017 164.311V153.263C528.017 152.88 528.141 152.565 528.389 152.317C528.636 152.047 528.963 151.911 529.368 151.911ZM522.408 174.752C523.534 174.752 524.526 174.47 525.382 173.907C526.26 173.321 526.936 172.533 527.409 171.542C527.904 170.528 528.152 169.391 528.152 168.129C528.152 166.845 527.904 165.708 527.409 164.717C526.936 163.726 526.26 162.949 525.382 162.386C524.526 161.8 523.534 161.507 522.408 161.507C521.304 161.507 520.313 161.8 519.435 162.386C518.579 162.949 517.903 163.726 517.408 164.717C516.912 165.708 516.664 166.845 516.664 168.129C516.664 169.368 516.912 170.495 517.408 171.508C517.903 172.499 518.579 173.288 519.435 173.873C520.313 174.459 521.304 174.752 522.408 174.752Z" fill="#B5B5B5"/>
<path d="M544.48 177.252C542.678 177.252 541.101 176.869 539.75 176.103C538.398 175.337 537.34 174.29 536.574 172.961C535.831 171.61 535.459 170.055 535.459 168.298C535.459 166.339 535.842 164.672 536.608 163.298C537.396 161.901 538.41 160.843 539.649 160.122C540.91 159.378 542.239 159.007 543.635 159.007C544.672 159.007 545.674 159.198 546.643 159.581C547.611 159.964 548.467 160.527 549.21 161.271C549.954 161.991 550.551 162.87 551.001 163.906C551.452 164.92 551.688 166.057 551.711 167.318C551.711 167.679 551.576 167.983 551.305 168.231C551.035 168.479 550.72 168.602 550.359 168.602H537.013L536.405 166.271H549.413L548.873 166.744V166.001C548.782 165.077 548.467 164.289 547.927 163.636C547.408 162.96 546.766 162.442 546.001 162.081C545.257 161.721 544.469 161.541 543.635 161.541C542.96 161.541 542.284 161.665 541.608 161.912C540.955 162.138 540.358 162.521 539.817 163.061C539.299 163.579 538.871 164.255 538.534 165.089C538.218 165.922 538.061 166.924 538.061 168.096C538.061 169.402 538.32 170.551 538.838 171.542C539.378 172.533 540.122 173.321 541.068 173.907C542.014 174.47 543.117 174.752 544.379 174.752C545.167 174.752 545.854 174.65 546.44 174.448C547.025 174.245 547.532 173.997 547.96 173.704C548.388 173.389 548.749 173.074 549.041 172.758C549.334 172.556 549.616 172.454 549.886 172.454C550.224 172.454 550.494 172.567 550.697 172.792C550.922 173.017 551.035 173.288 551.035 173.603C551.035 173.986 550.855 174.324 550.494 174.617C549.864 175.315 549.008 175.934 547.927 176.475C546.845 176.993 545.697 177.252 544.48 177.252Z" fill="#B5B5B5"/>
<path d="M556.284 159.142C556.554 159.142 556.814 159.221 557.061 159.378C557.309 159.514 557.489 159.716 557.602 159.987L563.211 173.164L562.67 173.434L568.38 160.02C568.628 159.412 569.045 159.119 569.63 159.142C569.968 159.142 570.261 159.255 570.509 159.48C570.757 159.705 570.88 159.987 570.88 160.324C570.88 160.46 570.858 160.595 570.813 160.73C570.79 160.843 570.757 160.944 570.711 161.034L564.19 176.036C563.943 176.599 563.548 176.892 563.008 176.914C562.715 176.937 562.434 176.88 562.163 176.745C561.915 176.588 561.735 176.351 561.623 176.036L555.102 161.068C555.057 160.978 555.012 160.876 554.966 160.764C554.944 160.651 554.933 160.516 554.933 160.358C554.933 160.065 555.045 159.795 555.271 159.547C555.518 159.277 555.856 159.142 556.284 159.142Z" fill="#B5B5B5"/>
<path d="M583.117 177.252C581.315 177.252 579.738 176.869 578.386 176.103C577.035 175.337 575.976 174.29 575.21 172.961C574.467 171.61 574.095 170.055 574.095 168.298C574.095 166.339 574.478 164.672 575.244 163.298C576.033 161.901 577.046 160.843 578.285 160.122C579.547 159.378 580.876 159.007 582.272 159.007C583.308 159.007 584.311 159.198 585.279 159.581C586.248 159.964 587.104 160.527 587.847 161.271C588.59 161.991 589.187 162.87 589.638 163.906C590.088 164.92 590.325 166.057 590.347 167.318C590.347 167.679 590.212 167.983 589.942 168.231C589.672 168.479 589.356 168.602 588.996 168.602H575.65L575.042 166.271H588.05L587.509 166.744V166.001C587.419 165.077 587.104 164.289 586.563 163.636C586.045 162.96 585.403 162.442 584.637 162.081C583.894 161.721 583.105 161.541 582.272 161.541C581.596 161.541 580.921 161.665 580.245 161.912C579.592 162.138 578.995 162.521 578.454 163.061C577.936 163.579 577.508 164.255 577.17 165.089C576.855 165.922 576.697 166.924 576.697 168.096C576.697 169.402 576.956 170.551 577.474 171.542C578.015 172.533 578.758 173.321 579.704 173.907C580.65 174.47 581.754 174.752 583.015 174.752C583.804 174.752 584.491 174.65 585.076 174.448C585.662 174.245 586.169 173.997 586.597 173.704C587.025 173.389 587.385 173.074 587.678 172.758C587.971 172.556 588.252 172.454 588.523 172.454C588.861 172.454 589.131 172.567 589.334 172.792C589.559 173.017 589.672 173.288 589.672 173.603C589.672 173.986 589.491 174.324 589.131 174.617C588.5 175.315 587.644 175.934 586.563 176.475C585.482 176.993 584.333 177.252 583.117 177.252Z" fill="#B5B5B5"/>
<path d="M598.059 175.529C598.059 175.912 597.924 176.238 597.654 176.509C597.383 176.779 597.057 176.914 596.674 176.914C596.291 176.914 595.975 176.779 595.728 176.509C595.48 176.238 595.356 175.912 595.356 175.529V153.263C595.356 152.88 595.48 152.565 595.728 152.317C595.998 152.047 596.325 151.911 596.708 151.911C597.113 151.911 597.44 152.047 597.687 152.317C597.935 152.565 598.059 152.88 598.059 153.263V175.529Z" fill="#B5B5B5"/>
<path d="M620.237 168.129C620.237 169.886 619.843 171.452 619.055 172.826C618.289 174.2 617.241 175.281 615.912 176.069C614.606 176.858 613.13 177.252 611.486 177.252C609.842 177.252 608.355 176.858 607.026 176.069C605.697 175.281 604.639 174.2 603.85 172.826C603.084 171.452 602.701 169.886 602.701 168.129C602.701 166.372 603.084 164.807 603.85 163.433C604.639 162.059 605.697 160.978 607.026 160.189C608.355 159.401 609.842 159.007 611.486 159.007C613.13 159.007 614.606 159.401 615.912 160.189C617.241 160.978 618.289 162.059 619.055 163.433C619.843 164.807 620.237 166.372 620.237 168.129ZM617.534 168.129C617.534 166.823 617.264 165.674 616.723 164.683C616.205 163.692 615.484 162.915 614.561 162.352C613.66 161.789 612.635 161.507 611.486 161.507C610.337 161.507 609.301 161.789 608.378 162.352C607.477 162.915 606.756 163.692 606.215 164.683C605.675 165.674 605.404 166.823 605.404 168.129C605.404 169.413 605.675 170.551 606.215 171.542C606.756 172.533 607.477 173.321 608.378 173.907C609.301 174.47 610.337 174.752 611.486 174.752C612.635 174.752 613.66 174.47 614.561 173.907C615.484 173.321 616.205 172.533 616.723 171.542C617.264 170.551 617.534 169.413 617.534 168.129Z" fill="#B5B5B5"/>
<path d="M633.594 159.176C635.126 159.176 636.5 159.559 637.716 160.324C638.933 161.09 639.89 162.149 640.588 163.501C641.309 164.852 641.67 166.406 641.67 168.163C641.67 169.898 641.309 171.452 640.588 172.826C639.89 174.177 638.933 175.247 637.716 176.036C636.523 176.802 635.171 177.184 633.662 177.184C632.828 177.184 632.04 177.061 631.297 176.813C630.576 176.542 629.911 176.205 629.303 175.799C628.718 175.371 628.222 174.898 627.817 174.38C627.411 173.839 627.118 173.31 626.938 172.792L627.681 172.319V182.286C627.681 182.669 627.558 182.996 627.31 183.266C627.062 183.537 626.735 183.672 626.33 183.672C625.947 183.672 625.62 183.537 625.35 183.266C625.102 183.018 624.978 182.692 624.978 182.286V160.696C624.978 160.313 625.102 159.998 625.35 159.75C625.62 159.48 625.947 159.345 626.33 159.345C626.735 159.345 627.062 159.48 627.31 159.75C627.558 159.998 627.681 160.313 627.681 160.696V163.703L627.175 163.433C627.332 162.87 627.603 162.329 627.986 161.811C628.391 161.293 628.875 160.843 629.438 160.46C630.024 160.054 630.666 159.739 631.364 159.514C632.085 159.288 632.828 159.176 633.594 159.176ZM633.29 161.676C632.164 161.676 631.162 161.958 630.283 162.521C629.427 163.084 628.751 163.85 628.256 164.818C627.783 165.787 627.546 166.902 627.546 168.163C627.546 169.402 627.783 170.517 628.256 171.508C628.751 172.499 629.427 173.276 630.283 173.839C631.162 174.403 632.164 174.684 633.29 174.684C634.416 174.684 635.408 174.403 636.264 173.839C637.119 173.276 637.795 172.499 638.291 171.508C638.786 170.517 639.034 169.402 639.034 168.163C639.034 166.902 638.786 165.787 638.291 164.818C637.795 163.85 637.119 163.084 636.264 162.521C635.408 161.958 634.416 161.676 633.29 161.676Z" fill="#B5B5B5"/>
<path d="M654.754 159.176C656.286 159.176 657.525 159.57 658.471 160.358C659.439 161.124 660.081 162.217 660.396 163.636H659.89L660.126 163.027C660.397 162.397 660.858 161.789 661.511 161.203C662.165 160.617 662.919 160.133 663.775 159.75C664.631 159.367 665.521 159.176 666.444 159.176C667.931 159.176 669.102 159.502 669.958 160.156C670.814 160.786 671.423 161.642 671.783 162.723C672.166 163.782 672.357 164.976 672.357 166.305V175.529C672.357 175.912 672.222 176.238 671.952 176.509C671.704 176.779 671.389 176.914 671.006 176.914C670.6 176.914 670.274 176.779 670.026 176.509C669.778 176.238 669.654 175.912 669.654 175.529V166.372C669.654 165.494 669.519 164.706 669.249 164.007C669.001 163.287 668.584 162.723 667.999 162.318C667.436 161.89 666.659 161.676 665.667 161.676C664.744 161.676 663.899 161.89 663.133 162.318C662.367 162.723 661.759 163.287 661.309 164.007C660.858 164.706 660.633 165.494 660.633 166.372V175.529C660.633 175.912 660.509 176.238 660.261 176.509C660.014 176.779 659.687 176.914 659.281 176.914C658.899 176.914 658.572 176.779 658.302 176.509C658.054 176.238 657.93 175.912 657.93 175.529V166.271C657.93 165.415 657.806 164.649 657.558 163.974C657.333 163.275 656.939 162.723 656.376 162.318C655.813 161.89 655.036 161.676 654.044 161.676C653.143 161.676 652.321 161.89 651.578 162.318C650.835 162.723 650.238 163.275 649.787 163.974C649.337 164.649 649.111 165.415 649.111 166.271V175.529C649.111 175.912 648.976 176.238 648.706 176.509C648.458 176.779 648.143 176.914 647.76 176.914C647.377 176.914 647.05 176.779 646.78 176.509C646.532 176.238 646.408 175.912 646.408 175.529V160.798C646.408 160.415 646.532 160.099 646.78 159.851C647.05 159.581 647.377 159.446 647.76 159.446C648.165 159.446 648.492 159.581 648.74 159.851C648.988 160.099 649.111 160.415 649.111 160.798V163.365L648.368 164.176C648.458 163.591 648.683 163.005 649.044 162.419C649.427 161.834 649.911 161.293 650.497 160.798C651.082 160.302 651.736 159.908 652.456 159.615C653.177 159.322 653.943 159.176 654.754 159.176Z" fill="#B5B5B5"/>
<path d="M686.109 177.252C684.307 177.252 682.731 176.869 681.379 176.103C680.028 175.337 678.969 174.29 678.203 172.961C677.46 171.61 677.088 170.055 677.088 168.298C677.088 166.339 677.471 164.672 678.237 163.298C679.025 161.901 680.039 160.843 681.278 160.122C682.539 159.378 683.868 159.007 685.265 159.007C686.301 159.007 687.303 159.198 688.272 159.581C689.24 159.964 690.096 160.527 690.84 161.271C691.583 161.991 692.18 162.87 692.63 163.906C693.081 164.92 693.317 166.057 693.34 167.318C693.34 167.679 693.205 167.983 692.935 168.231C692.664 168.479 692.349 168.602 691.988 168.602H678.642L678.034 166.271H691.042L690.502 166.744V166.001C690.412 165.077 690.096 164.289 689.556 163.636C689.038 162.96 688.396 162.442 687.63 162.081C686.887 161.721 686.098 161.541 685.265 161.541C684.589 161.541 683.913 161.665 683.237 161.912C682.584 162.138 681.987 162.521 681.447 163.061C680.929 163.579 680.501 164.255 680.163 165.089C679.847 165.922 679.69 166.924 679.69 168.096C679.69 169.402 679.949 170.551 680.467 171.542C681.008 172.533 681.751 173.321 682.697 173.907C683.643 174.47 684.747 174.752 686.008 174.752C686.796 174.752 687.483 174.65 688.069 174.448C688.655 174.245 689.162 173.997 689.59 173.704C690.017 173.389 690.378 173.074 690.671 172.758C690.964 172.556 691.245 172.454 691.515 172.454C691.853 172.454 692.124 172.567 692.326 172.792C692.552 173.017 692.664 173.288 692.664 173.603C692.664 173.986 692.484 174.324 692.124 174.617C691.493 175.315 690.637 175.934 689.556 176.475C688.475 176.993 687.326 177.252 686.109 177.252Z" fill="#B5B5B5"/>
<path d="M706.762 159.007C708.294 159.007 709.499 159.322 710.377 159.953C711.256 160.584 711.875 161.428 712.235 162.487C712.618 163.546 712.81 164.728 712.81 166.035V175.529C712.81 175.912 712.675 176.238 712.404 176.509C712.157 176.779 711.841 176.914 711.458 176.914C711.075 176.914 710.749 176.779 710.478 176.509C710.231 176.238 710.107 175.912 710.107 175.529V166.102C710.107 165.246 709.972 164.48 709.701 163.805C709.454 163.106 709.026 162.554 708.417 162.149C707.832 161.721 707.021 161.507 705.985 161.507C705.039 161.507 704.171 161.721 703.383 162.149C702.595 162.554 701.964 163.106 701.491 163.805C701.018 164.48 700.781 165.246 700.781 166.102V175.529C700.781 175.912 700.646 176.238 700.376 176.509C700.128 176.779 699.813 176.914 699.43 176.914C699.047 176.914 698.72 176.779 698.45 176.509C698.202 176.238 698.078 175.912 698.078 175.529V160.798C698.078 160.415 698.202 160.099 698.45 159.851C698.72 159.581 699.047 159.446 699.43 159.446C699.835 159.446 700.162 159.581 700.41 159.851C700.658 160.099 700.781 160.415 700.781 160.798V163.196L700.106 163.94C700.218 163.354 700.477 162.768 700.883 162.183C701.288 161.575 701.795 161.034 702.403 160.561C703.011 160.088 703.687 159.716 704.43 159.446C705.174 159.153 705.951 159.007 706.762 159.007Z" fill="#B5B5B5"/>
<path d="M717.81 159.547H725.75C726.11 159.547 726.403 159.671 726.628 159.919C726.876 160.167 727 160.46 727 160.798C727 161.158 726.876 161.462 726.628 161.71C726.403 161.935 726.11 162.048 725.75 162.048H717.81C717.472 162.048 717.179 161.924 716.931 161.676C716.684 161.428 716.56 161.124 716.56 160.764C716.56 160.426 716.684 160.144 716.931 159.919C717.179 159.671 717.472 159.547 717.81 159.547ZM721.357 154.952C721.74 154.952 722.056 155.087 722.303 155.358C722.551 155.605 722.675 155.921 722.675 156.304V172.623C722.675 173.164 722.754 173.569 722.912 173.839C723.069 174.11 723.272 174.301 723.52 174.414C723.79 174.504 724.049 174.549 724.297 174.549C724.522 174.549 724.714 174.515 724.871 174.448C725.052 174.358 725.254 174.313 725.48 174.313C725.705 174.313 725.907 174.425 726.088 174.65C726.29 174.853 726.392 175.123 726.392 175.461C726.392 175.867 726.155 176.216 725.682 176.509C725.209 176.779 724.68 176.914 724.094 176.914C723.779 176.914 723.385 176.892 722.912 176.847C722.461 176.802 722.011 176.655 721.56 176.407C721.11 176.16 720.727 175.754 720.411 175.191C720.119 174.605 719.972 173.794 719.972 172.758V156.304C719.972 155.921 720.107 155.605 720.378 155.358C720.648 155.087 720.974 154.952 721.357 154.952Z" fill="#B5B5B5"/>
</svg>
