<svg xmlns="http://www.w3.org/2000/svg" width="687.966" height="203.744" viewBox="0 0 687.966 203.744">
  <g id="Group_27975" data-name="Group 27975" transform="translate(-250.204 -347.711)">
    <path id="Path_12220" data-name="Path 12220" d="M6.854,59.418V16.452A1.575,1.575,0,0,1,8.435,14.87H32.159a1.525,1.525,0,0,1,1.12.461,1.672,1.672,0,0,1,0,2.306,1.525,1.525,0,0,1-1.12.461H10.083V36.353H29.391a1.476,1.476,0,0,1,1.12.494A1.637,1.637,0,0,1,30.973,38a1.575,1.575,0,0,1-1.582,1.582H10.083V57.771H32.159a1.525,1.525,0,0,1,1.12.461,1.672,1.672,0,0,1,0,2.306,1.525,1.525,0,0,1-1.12.461H8.3a1.667,1.667,0,0,1-1.021-.494A1.473,1.473,0,0,1,6.854,59.418ZM71.238,61H47.514a1.575,1.575,0,0,1-1.582-1.582V16.452a1.575,1.575,0,0,1,1.582-1.582,1.637,1.637,0,0,1,1.153.461,1.476,1.476,0,0,1,.494,1.12V57.771H71.238a1.689,1.689,0,0,1,1.647,1.647,1.476,1.476,0,0,1-.494,1.12A1.637,1.637,0,0,1,71.238,61ZM83.5,59.418V16.452a1.575,1.575,0,0,1,1.582-1.582,1.637,1.637,0,0,1,1.153.461,1.476,1.476,0,0,1,.494,1.12V59.418a1.476,1.476,0,0,1-.494,1.12A1.637,1.637,0,0,1,85.077,61,1.575,1.575,0,0,1,83.5,59.418ZM102.606,61l-.461-.066a1.534,1.534,0,0,1-.923-2.109,2.3,2.3,0,0,1,.4-.593L130.68,18.3H102.738a1.582,1.582,0,1,1,0-3.163h30.644a1.75,1.75,0,0,1,1.779.593,1.432,1.432,0,0,1,0,1.977L105.835,57.771h28.073a1.525,1.525,0,0,1,1.12.461,1.672,1.672,0,0,1,0,2.306,1.525,1.525,0,0,1-1.12.461Zm75.917-.066L177.93,61a1.492,1.492,0,0,1-1.516-1.054l-4.086-10.874H151.306l-4.086,10.874A1.492,1.492,0,0,1,145.7,61l-.593-.066a1.756,1.756,0,0,1-.89-.89,1.4,1.4,0,0,1-.033-1.219L160.2,16.056a1.664,1.664,0,0,1,1.648-.989,1.423,1.423,0,0,1,1.516.989L179.38,58.825a1.475,1.475,0,0,1,0,1.219A1.621,1.621,0,0,1,178.523,60.934ZM161.85,21.065l-9.358,24.778h18.65Zm27.81,38.354V16.452a1.575,1.575,0,0,1,1.582-1.582h10.28a11.047,11.047,0,0,1,8.106,3.361,11.481,11.481,0,0,1,3.361,8.468,10.77,10.77,0,0,1-4.415,8.666,13.518,13.518,0,0,1,6.491,4.778A12.5,12.5,0,0,1,217.6,47.82,13.162,13.162,0,0,1,204.422,61H191.176a1.419,1.419,0,0,1-1.087-.461A1.587,1.587,0,0,1,189.66,59.418Zm3.229-1.647h11.533a9.521,9.521,0,0,0,6.985-2.9,9.827,9.827,0,0,0,0-14.07,9.468,9.468,0,0,0-6.985-2.933H192.889Zm0-23.2h8.633a8.212,8.212,0,0,0,8.238-8.2,8.013,8.013,0,0,0-2.405-5.832,7.888,7.888,0,0,0-5.832-2.438h-8.633ZM228.8,59.418V16.452a1.575,1.575,0,0,1,1.582-1.582H254.11a1.525,1.525,0,0,1,1.12.461,1.672,1.672,0,0,1,0,2.306,1.525,1.525,0,0,1-1.12.461H232.034V36.353h19.309a1.476,1.476,0,0,1,1.12.494A1.637,1.637,0,0,1,252.924,38a1.575,1.575,0,0,1-1.582,1.582H232.034V57.771H254.11a1.525,1.525,0,0,1,1.12.461,1.672,1.672,0,0,1,0,2.306,1.525,1.525,0,0,1-1.12.461H230.255a1.667,1.667,0,0,1-1.021-.494A1.473,1.473,0,0,1,228.8,59.418Zm51.007,0V18.1h-13.9a1.476,1.476,0,0,1-1.12-.494,1.637,1.637,0,0,1-.461-1.153,1.575,1.575,0,0,1,1.582-1.582H296.88a1.575,1.575,0,0,1,1.582,1.582A1.637,1.637,0,0,1,298,17.6a1.476,1.476,0,0,1-1.12.494h-13.9V59.418a1.582,1.582,0,1,1-3.163,0Zm81.98,1.516L361.2,61a1.492,1.492,0,0,1-1.516-1.054L355.6,49.072H334.574l-4.086,10.874A1.492,1.492,0,0,1,328.973,61l-.593-.066a1.756,1.756,0,0,1-.89-.89,1.4,1.4,0,0,1-.033-1.219l16.014-42.769a1.664,1.664,0,0,1,1.647-.989,1.423,1.423,0,0,1,1.516.989l16.014,42.769a1.475,1.475,0,0,1,0,1.219A1.621,1.621,0,0,1,361.791,60.934Zm-16.673-39.87L335.76,45.843h18.65Zm58.849,39.079L376.289,21.658V59.418a1.582,1.582,0,1,1-3.163,0V17.111a1.293,1.293,0,0,1,.4-1.582,1.923,1.923,0,0,1,1.417-.428,1.362,1.362,0,0,1,1.021.626L403.9,54.476V16.913a1.575,1.575,0,0,1,1.582-1.582,1.637,1.637,0,0,1,1.153.461,1.476,1.476,0,0,1,.494,1.12V59.418a1.476,1.476,0,0,1-.494,1.12,1.719,1.719,0,0,1-1.219.461,1.437,1.437,0,0,1-1.186-.593Zm53.906-19.9H445.286a1.606,1.606,0,0,1-1.186-.461,1.672,1.672,0,0,1,0-2.306,1.606,1.606,0,0,1,1.186-.461h14.432a1.647,1.647,0,0,1,1.45,1.647v16.08a1.913,1.913,0,0,1-.593,1.186A23.257,23.257,0,0,1,445.682,61a23.7,23.7,0,0,1-16.969-6.887,22.171,22.171,0,0,1-7.018-16.508,22.277,22.277,0,0,1,7.018-16.541,23.4,23.4,0,0,1,16.969-6.854,23.841,23.841,0,0,1,14.959,5.206,1.337,1.337,0,0,1,.527,1.021,1.694,1.694,0,0,1-.33,1.219,1.521,1.521,0,0,1-2.306.264,19.658,19.658,0,0,0-12.85-4.481,20.3,20.3,0,0,0-14.7,5.9,19.173,19.173,0,0,0-6.063,14.267,19.173,19.173,0,0,0,6.063,14.267,21.041,21.041,0,0,0,26.887,1.944ZM477.38,59.418V16.452a1.575,1.575,0,0,1,1.582-1.582h23.724a1.525,1.525,0,0,1,1.12.461,1.672,1.672,0,0,1,0,2.306,1.525,1.525,0,0,1-1.12.461H480.609V36.353h19.309a1.476,1.476,0,0,1,1.12.494A1.637,1.637,0,0,1,501.5,38a1.575,1.575,0,0,1-1.582,1.582H480.609V57.771h22.077a1.525,1.525,0,0,1,1.12.461,1.672,1.672,0,0,1,0,2.306,1.525,1.525,0,0,1-1.12.461H478.829a1.667,1.667,0,0,1-1.021-.494A1.473,1.473,0,0,1,477.38,59.418ZM541.764,61H518.04a1.575,1.575,0,0,1-1.582-1.582V16.452a1.575,1.575,0,0,1,1.582-1.582,1.637,1.637,0,0,1,1.153.461,1.476,1.476,0,0,1,.494,1.12V57.771h22.077a1.689,1.689,0,0,1,1.647,1.647,1.476,1.476,0,0,1-.494,1.12A1.637,1.637,0,0,1,541.764,61Zm9.753-23.395a23.465,23.465,0,0,1,6.524-16.574,21.443,21.443,0,0,1,31.368,0,23.6,23.6,0,0,1,6.458,16.574,23.6,23.6,0,0,1-6.458,16.574,21.443,21.443,0,0,1-31.368,0A23.465,23.465,0,0,1,551.517,37.605Zm22.175-20.1a17.887,17.887,0,0,0-13.378,5.8,19.812,19.812,0,0,0-5.569,14.267,20.04,20.04,0,0,0,5.569,14.333,18.042,18.042,0,0,0,26.657-.033,20.344,20.344,0,0,0,5.6-14.267A20.225,20.225,0,0,0,587,23.305,17.679,17.679,0,0,0,573.693,17.506Zm53.082,43.362a2.4,2.4,0,0,1-.758.132.7.7,0,0,1-.494-.132,1.188,1.188,0,0,1-.791-.791q-.066,0-.066-.132l-.066-.066L606.741,17.374a1.475,1.475,0,0,1,0-1.219,1.621,1.621,0,0,1,.857-.89,1.564,1.564,0,0,1,1.219-.033,1.5,1.5,0,0,1,.89.824l16.475,39.276,16.541-39.276a1.283,1.283,0,0,1,.824-.824,1.564,1.564,0,0,1,1.219.033,1.621,1.621,0,0,1,.857.89,1.475,1.475,0,0,1,0,1.219L627.763,59.55a1.522,1.522,0,0,1-.923,1.318Zm63.659.066-.593.066a1.492,1.492,0,0,1-1.516-1.054L684.24,49.072H663.218l-4.086,10.874A1.492,1.492,0,0,1,657.616,61l-.593-.066a1.756,1.756,0,0,1-.89-.89,1.4,1.4,0,0,1-.033-1.219l16.014-42.769a1.664,1.664,0,0,1,1.647-.989,1.423,1.423,0,0,1,1.516.989l16.014,42.769a1.475,1.475,0,0,1,0,1.219A1.621,1.621,0,0,1,690.434,60.934Zm-16.673-39.87L664.4,45.843h18.65Z" transform="translate(244 334)" fill="#fff" stroke="#fff" stroke-width="1"/>
    <path id="Path_12221" data-name="Path 12221" d="M6.7,23.583H18.627V63.945q0,5.214.912,7.377a7.347,7.347,0,0,0,3.013,3.456,9.488,9.488,0,0,0,5.071,1.293,9.88,9.88,0,0,0,5.41-1.441,7.594,7.594,0,0,0,3.14-3.667q.87-2.226.87-8.5V23.583H48.966V60.8q0,9.42-1.061,13.069a18.526,18.526,0,0,1-4.052,7.044,18.814,18.814,0,0,1-6.9,5.028,23.384,23.384,0,0,1-9.08,1.634A21.96,21.96,0,0,1,16.06,84.451a18.145,18.145,0,0,1-7.192-7.807Q6.7,71.955,6.7,60.8Zm58.94,0h11.8V86h-11.8Z" transform="translate(244 410)" fill="#8f60ff" stroke="#8f60ff" stroke-width="1"/>
    <path id="Path_12222" data-name="Path 12222" d="M6.7,23.583H18.627V63.945q0,5.214.912,7.377a7.347,7.347,0,0,0,3.013,3.456,9.488,9.488,0,0,0,5.071,1.293,9.88,9.88,0,0,0,5.41-1.441,7.594,7.594,0,0,0,3.14-3.667q.87-2.226.87-8.5V23.583H48.966V60.8q0,9.42-1.061,13.069a18.526,18.526,0,0,1-4.052,7.044,18.814,18.814,0,0,1-6.9,5.028,23.384,23.384,0,0,1-9.08,1.634A21.96,21.96,0,0,1,16.06,84.451a18.145,18.145,0,0,1-7.192-7.807Q6.7,71.955,6.7,60.8Zm55.737,0H75.807l13.119,20.04,13.147-20.04h13.35l-19.8,30.262L116.669,86H103.3L88.937,64.056,74.576,86H61.125l21.11-32.18Zm94.988,0H171.5q13.609,0,20.222,3.373a26.346,26.346,0,0,1,10.9,10.969A35.512,35.512,0,0,1,206.9,55.661a35.692,35.692,0,0,1-2.4,13.26A27.515,27.515,0,0,1,197.9,78.956a23.358,23.358,0,0,1-9.136,5.516Q183.842,86,171.717,86H157.43Zm11.8,11.457V74.416h5.516q8.147,0,11.817-1.869a14.161,14.161,0,0,0,6-6.287A23.063,23.063,0,0,0,194.9,55.386q0-9.94-5.559-15.419-5.007-4.927-16.082-4.927Zm52.788-11.457h34.073V35.209H233.809V46.5h22.277V57.91H233.809V74.331h22.277V86H222.013Zm81.641,8.486-8.8,7.765q-4.634-6.45-9.437-6.45a5.739,5.739,0,0,0-3.825,1.252,3.644,3.644,0,0,0-1.488,2.822,4.832,4.832,0,0,0,1.063,2.97q1.445,1.867,8.713,8.02,6.8,5.686,8.246,7.171a24.859,24.859,0,0,1,5.122,6.98,17.427,17.427,0,0,1,1.509,7.277,16.687,16.687,0,0,1-5.31,12.687q-5.31,5.007-13.848,5.007A20.6,20.6,0,0,1,273.983,84.3q-4.949-3.267-8.474-10.268l9.987-6.025q4.505,8.274,10.369,8.274a7.634,7.634,0,0,0,5.142-1.782,5.3,5.3,0,0,0,2.082-4.116,7.1,7.1,0,0,0-1.573-4.243,45.352,45.352,0,0,0-6.928-6.492q-10.2-8.317-13.177-12.836a16.306,16.306,0,0,1-2.975-9.017,14.745,14.745,0,0,1,4.949-11.138A17.168,17.168,0,0,1,285.6,22.013a19.272,19.272,0,0,1,8.9,2.164Q298.726,26.341,303.654,32.069Zm15.321-8.486h11.8V86h-11.8ZM405.5,33.767l-8.366,8.274q-7.941-8.4-18.516-8.4a21.162,21.162,0,0,0-15.438,6.11A20.035,20.035,0,0,0,356.954,54.6a20.556,20.556,0,0,0,6.457,15.318,21.96,21.96,0,0,0,15.929,6.28,19.539,19.539,0,0,0,10.386-2.588,18.219,18.219,0,0,0,6.818-8.1H378.467V54.346h31.4l.085,2.631a30.558,30.558,0,0,1-4.243,15.53,29.665,29.665,0,0,1-10.99,11.2,31.316,31.316,0,0,1-15.827,3.861,35.148,35.148,0,0,1-17.333-4.222,30.886,30.886,0,0,1-12.051-12.029,33.547,33.547,0,0,1-4.434-16.845,31.307,31.307,0,0,1,8.189-21.555q9.717-10.9,25.289-10.9a38.524,38.524,0,0,1,15.233,3.013A34.935,34.935,0,0,1,405.5,33.767Zm19.139-10.184h11.4l26.707,41.074V23.583H474.62V86H463.19L436.516,45.053V86H424.635Zm68.021,0h34.073V35.209H504.452V46.5h22.277V57.91H504.452V74.331h22.277V86H492.656Zm49.69,0h12.588q10.341,0,14.728,1.846a15.092,15.092,0,0,1,7.057,6.131,18.784,18.784,0,0,1,2.67,10.141,17.279,17.279,0,0,1-2.949,10.29,17.9,17.9,0,0,1-8.888,6.259L582.338,86H569.35L555.314,59.565h-1.087V86H542.346Zm11.881,24.4h3.723q5.668,0,7.8-1.49t2.136-4.938A6.042,6.042,0,0,0,566.832,38,5.865,5.865,0,0,0,564,35.827a21.488,21.488,0,0,0-6.514-.66h-3.257Z" transform="translate(355 410)" fill="#8f60ff" stroke="#8f60ff" stroke-width="1"/>
    <path id="Path_12223" data-name="Path 12223" d="M7,0A7,7,0,1,1,0,7,7,7,0,0,1,7,0Z" transform="translate(335 456)" fill="#8f60ff"/>
    <path id="Path_12224" data-name="Path 12224" d="M16.864,29h-.155a.607.607,0,0,1-.589-.465l-.031-.031-3.534-8.4-3.5,8.37a.089.089,0,0,0-.031.062A.627.627,0,0,1,8.37,29a.553.553,0,0,1-.4-.124.566.566,0,0,1-.31-.341l-5.7-13.578a.659.659,0,0,1,0-.558.66.66,0,0,1,.961-.4.652.652,0,0,1,.372.4L8.339,26.365l3.5-8.339a.8.8,0,0,1,1.457,0l3.5,8.339L21.824,14.4a.763.763,0,0,1,.418-.4.658.658,0,0,1,.558,0,.777.777,0,0,1,.388.4.659.659,0,0,1,0,.558L17.515,28.473a.926.926,0,0,1-.294.372A.616.616,0,0,1,16.864,29ZM29.7,28.256v-13.7a.717.717,0,0,1,.217-.527.787.787,0,0,1,1.085,0,.717.717,0,0,1,.217.527v13.7a.694.694,0,0,1-.233.527.77.77,0,0,1-.542.217.741.741,0,0,1-.744-.744Zm0-17.949V9.594a.741.741,0,0,1,.744-.744.77.77,0,0,1,.542.217.694.694,0,0,1,.233.527v.713a.779.779,0,0,1-.233.573.743.743,0,0,1-.542.233.694.694,0,0,1-.527-.233A.809.809,0,0,1,29.7,10.307Zm13.33,3.5a.745.745,0,0,1,0,1.488H41.075V26.365a.984.984,0,0,0,.388.806,1.17,1.17,0,0,0,.7.31.771.771,0,0,1,.558.248.741.741,0,0,1,.248.527.692.692,0,0,1-.248.511.762.762,0,0,1-.527.233,2.614,2.614,0,0,1-1.907-.744,2.534,2.534,0,0,1-.759-1.891V15.3H37.634q-.5,0-.62-.186a.881.881,0,0,1-.124-.5,2.054,2.054,0,0,1,.031-.434q.093-.372.713-.372h1.891V8.168a.711.711,0,0,1,.232-.512.727.727,0,0,1,.527-.233.779.779,0,0,1,.543.233.692.692,0,0,1,.248.512V13.81ZM51.863,29h-.155a.658.658,0,0,1-.744-.744V8.044a.741.741,0,0,1,.744-.744.77.77,0,0,1,.543.217.694.694,0,0,1,.232.527v8a5.9,5.9,0,0,1,4.681-2.232A6.6,6.6,0,0,1,61.8,15.5a5.567,5.567,0,0,1,1.845,4.293v8.463a.694.694,0,0,1-.233.527.77.77,0,0,1-.542.217.741.741,0,0,1-.744-.744V19.793a4.124,4.124,0,0,0-1.395-3.208,5.3,5.3,0,0,0-6.851,0,4.124,4.124,0,0,0-1.4,3.208v8.556a.959.959,0,0,1-.124.295.685.685,0,0,1-.434.326A.089.089,0,0,1,51.863,29Zm39.06-14.973a.744.744,0,0,1,1.271.527v13.7a.744.744,0,1,1-1.488,0V25.993a7.194,7.194,0,0,1-2.5,2.2,6.864,6.864,0,0,1-8.293-1.426A7.534,7.534,0,0,1,77.81,21.4a7.534,7.534,0,0,1,2.108-5.363,6.864,6.864,0,0,1,8.293-1.426,7.321,7.321,0,0,1,2.5,2.17V14.554A.717.717,0,0,1,90.923,14.027ZM79.3,21.4a6.056,6.056,0,0,0,1.69,4.325,5.429,5.429,0,0,0,8.044,0A6.087,6.087,0,0,0,90.706,21.4a6.141,6.141,0,0,0-1.674-4.34,5.4,5.4,0,0,0-8.044,0A6.11,6.11,0,0,0,79.3,21.4Zm28.83,6.851V8.044a.741.741,0,0,1,.744-.744.77.77,0,0,1,.543.217.694.694,0,0,1,.232.527v8.742a7.576,7.576,0,0,1,2.542-2.17,7.159,7.159,0,0,1,8.494,1.426,7.494,7.494,0,0,1,2.139,5.378,7.441,7.441,0,0,1-2.139,5.363,7.226,7.226,0,0,1-8.494,1.426,7.417,7.417,0,0,1-2.542-2.154v2.2a.694.694,0,0,1-.232.527.77.77,0,0,1-.543.217.741.741,0,0,1-.744-.744Zm1.519-7.068v.248a5.907,5.907,0,0,0,1.72,4.278,5.676,5.676,0,0,0,8.23,0A5.954,5.954,0,0,0,121.3,21.42a6.008,6.008,0,0,0-1.705-4.309,5.462,5.462,0,0,0-4.092-1.783,5.53,5.53,0,0,0-4.076,1.705A6.023,6.023,0,0,0,109.647,21.188Zm30.5-7.161a.744.744,0,0,1,1.271.527v13.7a.744.744,0,1,1-1.488,0V25.993a7.194,7.194,0,0,1-2.5,2.2,6.864,6.864,0,0,1-8.292-1.426,7.534,7.534,0,0,1-2.108-5.363,7.534,7.534,0,0,1,2.108-5.363,6.864,6.864,0,0,1,8.292-1.426,7.321,7.321,0,0,1,2.5,2.17V14.554A.717.717,0,0,1,140.151,14.027ZM128.526,21.4a6.056,6.056,0,0,0,1.689,4.325,5.429,5.429,0,0,0,8.044,0,6.087,6.087,0,0,0,1.674-4.325,6.141,6.141,0,0,0-1.674-4.34,5.4,5.4,0,0,0-8.044,0A6.11,6.11,0,0,0,128.526,21.4ZM154.69,29a7.642,7.642,0,0,1-5.534-2.216,7.242,7.242,0,0,1-2.278-5.394,7.192,7.192,0,0,1,2.278-5.379,7.359,7.359,0,0,1,5.27-2.2,7.946,7.946,0,0,1,5.1,1.674.586.586,0,0,1,.279.465.71.71,0,0,1-.186.558.685.685,0,0,1-1.023.124,6.393,6.393,0,0,0-4.123-1.364,5.927,5.927,0,0,0-4.263,1.8,6.01,6.01,0,0,0,0,8.665,5.935,5.935,0,0,0,4.247,1.782,6.6,6.6,0,0,0,4.139-1.333.693.693,0,0,1,1.038.155q.48.558-.171,1.054A7.572,7.572,0,0,1,154.69,29Zm11.067-.744V8.044A.741.741,0,0,1,166.5,7.3a.77.77,0,0,1,.542.217.694.694,0,0,1,.232.527v14.6l8.99-8.959a.777.777,0,0,1,1.3.511.755.755,0,0,1-.248.543L171.461,20.6l5.89,7.161a.719.719,0,0,1-.062,1.085.856.856,0,0,1-.558.155.553.553,0,0,1-.527-.279l-5.828-7.037-3.1,3.1v3.472a.694.694,0,0,1-.232.527A.77.77,0,0,1,166.5,29a.741.741,0,0,1-.744-.744Zm30.721-13.7V27.791a7.144,7.144,0,0,1-7.161,7.13,7.931,7.931,0,0,1-3.162-.713q-.62-.434-.31-.992a.629.629,0,0,1,.992-.341,5.724,5.724,0,0,0,2.48.558,5.494,5.494,0,0,0,4.014-1.643,5.417,5.417,0,0,0,1.658-4v-1.86a6.83,6.83,0,0,1-5.673,2.976,6.666,6.666,0,0,1-5.053-2.216,7.521,7.521,0,0,1-2.077-5.332,7.491,7.491,0,0,1,2.092-5.332,6.817,6.817,0,0,1,8.246-1.411,7.033,7.033,0,0,1,2.464,2.17V14.554a.694.694,0,0,1,.232-.527.752.752,0,0,1,.527-.217.7.7,0,0,1,.512.217A.717.717,0,0,1,196.478,14.554Zm-12.8,6.8a6.1,6.1,0,0,0,1.658,4.309,5.377,5.377,0,0,0,8,0,6.118,6.118,0,0,0,1.658-4.324,6.01,6.01,0,0,0-1.658-4.294,5.425,5.425,0,0,0-8,.015A6.044,6.044,0,0,0,183.675,21.358Zm20.088,6.9V14.585a.744.744,0,1,1,1.488,0v3.348a2.549,2.549,0,0,1,.217-.372q2.387-3.72,6.076-3.72a.744.744,0,1,1,0,1.488,5.523,5.523,0,0,0-4.4,2.48,12.944,12.944,0,0,0-1.829,3.534.55.55,0,0,0-.062.248v6.665a.744.744,0,1,1-1.488,0Zm15.1-1.5a7.55,7.55,0,0,1-2.108-5.348,7.55,7.55,0,0,1,2.108-5.347,6.874,6.874,0,0,1,10.168,0,7.55,7.55,0,0,1,2.108,5.347,7.55,7.55,0,0,1-2.108,5.348,6.874,6.874,0,0,1-10.168,0Zm5.084-11.486a5.326,5.326,0,0,0-4.014,1.8,6.091,6.091,0,0,0-1.689,4.325,6.091,6.091,0,0,0,1.689,4.325,5.381,5.381,0,0,0,8.029,0,6.091,6.091,0,0,0,1.689-4.325,6.091,6.091,0,0,0-1.689-4.325A5.326,5.326,0,0,0,223.944,15.267ZM236.623,22.8V14.523a.744.744,0,1,1,1.488,0V22.8a4.515,4.515,0,0,0,1.364,3.317,4.59,4.59,0,0,0,3.286,1.395,4.679,4.679,0,0,0,3.333-1.395,4.49,4.49,0,0,0,1.38-3.317V14.523a.694.694,0,0,1,.232-.527.77.77,0,0,1,.542-.217.741.741,0,0,1,.744.744V22.8a6.185,6.185,0,1,1-12.369,0Zm20.863,5.58a.7.7,0,0,1-.713.62h-.186a.75.75,0,0,1-.5-.4.126.126,0,0,1-.031-.093l-.031-.062V14.585a.741.741,0,0,1,.744-.744.668.668,0,0,1,.511.217.746.746,0,0,1,.2.527v1.457a5.677,5.677,0,0,1,4.542-2.2,6.142,6.142,0,0,1,4.526,1.813,5.939,5.939,0,0,1,1.814,4.355v8.246a.744.744,0,1,1-1.488,0V20.01a4.53,4.53,0,0,0-1.364-3.3,4.659,4.659,0,0,0-6.6-.015,4.741,4.741,0,0,0-1.426,3.317Zm29.791-.124v-2.2a7.417,7.417,0,0,1-2.542,2.154,7.226,7.226,0,0,1-8.494-1.426A7.441,7.441,0,0,1,274.1,21.42a7.494,7.494,0,0,1,2.139-5.378,7.159,7.159,0,0,1,8.494-1.426,7.576,7.576,0,0,1,2.542,2.17V8.044a.694.694,0,0,1,.232-.527.77.77,0,0,1,.543-.217.741.741,0,0,1,.744.744V28.256a.741.741,0,0,1-.744.744.77.77,0,0,1-.543-.217A.694.694,0,0,1,287.277,28.256ZM275.621,21.42a5.926,5.926,0,0,0,1.72,4.294,5.673,5.673,0,0,0,8.153.077,5.933,5.933,0,0,0,1.783-4.108v-.5a6.023,6.023,0,0,0-1.783-4.154,5.638,5.638,0,0,0-8.153.077A5.979,5.979,0,0,0,275.621,21.42ZM305.1,28.256v-13.7a.717.717,0,0,1,.217-.527.787.787,0,0,1,1.085,0,.717.717,0,0,1,.217.527v13.7a.694.694,0,0,1-.233.527.77.77,0,0,1-.543.217.741.741,0,0,1-.744-.744Zm0-17.949V9.594a.741.741,0,0,1,.744-.744.77.77,0,0,1,.543.217.694.694,0,0,1,.233.527v.713a.779.779,0,0,1-.233.573.744.744,0,0,1-.543.233.694.694,0,0,1-.527-.233A.809.809,0,0,1,305.1,10.307Zm10.23,18.073a.7.7,0,0,1-.713.62h-.186a.75.75,0,0,1-.5-.4.126.126,0,0,1-.031-.093l-.031-.062V14.585a.741.741,0,0,1,.744-.744.668.668,0,0,1,.511.217.746.746,0,0,1,.2.527v1.457a5.677,5.677,0,0,1,4.542-2.2,6.142,6.142,0,0,1,4.526,1.813,5.939,5.939,0,0,1,1.814,4.355v8.246a.744.744,0,1,1-1.488,0V20.01a4.53,4.53,0,0,0-1.364-3.3,4.659,4.659,0,0,0-6.6-.015,4.741,4.741,0,0,0-1.426,3.317ZM341.4,26.83a.636.636,0,0,1-.093-.992.679.679,0,0,1,.5-.279.71.71,0,0,1,.558.186,7.705,7.705,0,0,0,4.4,1.767,4.832,4.832,0,0,0,3.131-.93,2.155,2.155,0,0,0,1.131-1.814,2.383,2.383,0,0,0-1.023-1.844,7.2,7.2,0,0,0-3.271-1.178l-.062-.031a8.725,8.725,0,0,1-3.441-1.178,3.008,3.008,0,0,1-1.643-2.728,3.59,3.59,0,0,1,1.643-2.976,6.416,6.416,0,0,1,3.72-1.023,5.89,5.89,0,0,1,1.813.295,8.38,8.38,0,0,1,1.4.558q.481.264,1.318.791a.794.794,0,0,1,.31.5.741.741,0,0,1-.093.558.678.678,0,0,1-.465.31.741.741,0,0,1-.558-.093q-.775-.527-1.163-.759a6.541,6.541,0,0,0-1.132-.5,4.267,4.267,0,0,0-1.426-.264,4.388,4.388,0,0,0-2.821.822,2.27,2.27,0,0,0-1.023,1.72,1.981,1.981,0,0,0,.868,1.581,7.541,7.541,0,0,0,3.1,1.054h.062a10.96,10.96,0,0,1,3.689,1.24,3.422,3.422,0,0,1,1.7,2.991,3.772,3.772,0,0,1-1.689,3.131A6.256,6.256,0,0,1,347.014,29,9,9,0,0,1,341.4,26.83Zm17.7-.077A7.55,7.55,0,0,1,357,21.4a7.55,7.55,0,0,1,2.108-5.347,6.874,6.874,0,0,1,10.168,0A7.55,7.55,0,0,1,371.38,21.4a7.55,7.55,0,0,1-2.108,5.348,6.874,6.874,0,0,1-10.168,0Zm5.084-11.486a5.326,5.326,0,0,0-4.014,1.8,6.091,6.091,0,0,0-1.69,4.325,6.091,6.091,0,0,0,1.69,4.325,5.381,5.381,0,0,0,8.029,0,6.091,6.091,0,0,0,1.69-4.325,6.091,6.091,0,0,0-1.69-4.325A5.326,5.326,0,0,0,364.188,15.267Zm18.941-7.936a.694.694,0,0,1,.527.233.77.77,0,0,1,.217.542.741.741,0,0,1-.744.744,2.55,2.55,0,0,0-1.984.635,3.894,3.894,0,0,0-.558,2.465v1.612h2.139a.77.77,0,0,1,.542.217.694.694,0,0,1,.233.527.795.795,0,0,1-.775.775h-2.139V28.287a.741.741,0,0,1-.744.744.77.77,0,0,1-.543-.217.694.694,0,0,1-.233-.527V15.081h-2.015a.694.694,0,0,1-.527-.233.77.77,0,0,1-.217-.543.741.741,0,0,1,.744-.744h2.015V11.95a5.718,5.718,0,0,1,.992-3.534A3.963,3.963,0,0,1,383.129,7.331Zm9.92,6.479a.745.745,0,0,1,0,1.488H391.1V26.365a.984.984,0,0,0,.388.806,1.17,1.17,0,0,0,.7.31.771.771,0,0,1,.558.248.741.741,0,0,1,.248.527.692.692,0,0,1-.248.511.763.763,0,0,1-.527.233,2.614,2.614,0,0,1-1.906-.744,2.534,2.534,0,0,1-.759-1.891V15.3h-1.891q-.5,0-.62-.186a.881.881,0,0,1-.124-.5,2.054,2.054,0,0,1,.031-.434q.093-.372.713-.372h1.891V8.168a.711.711,0,0,1,.232-.512.727.727,0,0,1,.527-.233.779.779,0,0,1,.543.233.692.692,0,0,1,.248.512V13.81ZM414.966,29h-.155a.607.607,0,0,1-.589-.465l-.031-.031-3.534-8.4-3.5,8.37a.089.089,0,0,0-.031.062.627.627,0,0,1-.651.465.553.553,0,0,1-.4-.124.566.566,0,0,1-.31-.341l-5.7-13.578a.723.723,0,1,1,1.333-.558l5.053,11.966,3.5-8.339a.8.8,0,0,1,1.457,0l3.5,8.339L419.926,14.4a.763.763,0,0,1,.418-.4.658.658,0,0,1,.558,0,.777.777,0,0,1,.387.4.659.659,0,0,1,0,.558l-5.673,13.516a.926.926,0,0,1-.294.372A.616.616,0,0,1,414.966,29Zm24.273-14.973a.744.744,0,0,1,1.271.527v13.7a.744.744,0,1,1-1.488,0V25.993a7.194,7.194,0,0,1-2.5,2.2,6.864,6.864,0,0,1-8.293-1.426,7.534,7.534,0,0,1-2.108-5.363,7.534,7.534,0,0,1,2.108-5.363,6.864,6.864,0,0,1,8.293-1.426,7.321,7.321,0,0,1,2.5,2.17V14.554A.717.717,0,0,1,439.239,14.027ZM427.614,21.4a6.056,6.056,0,0,0,1.69,4.325,5.429,5.429,0,0,0,8.044,0,6.087,6.087,0,0,0,1.674-4.325,6.141,6.141,0,0,0-1.674-4.34,5.4,5.4,0,0,0-8.044,0A6.11,6.11,0,0,0,427.614,21.4Zm19.437,6.851V14.585a.744.744,0,1,1,1.488,0v3.348a2.549,2.549,0,0,1,.217-.372q2.387-3.72,6.076-3.72a.744.744,0,1,1,0,1.488,5.523,5.523,0,0,0-4.4,2.48,12.944,12.944,0,0,0-1.829,3.534.55.55,0,0,0-.062.248v6.665a.744.744,0,1,1-1.488,0Zm27.311-7.378V21a.62.62,0,0,1-.217.5.782.782,0,0,1-.527.186H461.156a6.035,6.035,0,0,0,1.829,4.154,5.746,5.746,0,0,0,6.882.93,5.712,5.712,0,0,0,2.077-2.015.639.639,0,0,1,.992-.248.707.707,0,0,1,.248,1.054,7.351,7.351,0,0,1-2.62,2.511,7.209,7.209,0,0,1-8.742-1.286,7.413,7.413,0,0,1-2.155-5.363,7.465,7.465,0,0,1,2.155-5.378,6.9,6.9,0,0,1,5.146-2.232,6.977,6.977,0,0,1,5.068,2.031A7.694,7.694,0,0,1,474.362,20.878Zm-1.612-.651a5.862,5.862,0,0,0-1.984-3.534,5.723,5.723,0,0,0-7.471-.016,6.106,6.106,0,0,0-2.046,3.549Zm28.52,8.029v-2.2a7.417,7.417,0,0,1-2.542,2.154,7.226,7.226,0,0,1-8.494-1.426A7.441,7.441,0,0,1,488.1,21.42a7.494,7.494,0,0,1,2.139-5.378,7.159,7.159,0,0,1,8.494-1.426,7.576,7.576,0,0,1,2.542,2.17V8.044a.694.694,0,0,1,.232-.527.77.77,0,0,1,.543-.217.741.741,0,0,1,.744.744V28.256a.741.741,0,0,1-.744.744.77.77,0,0,1-.543-.217A.694.694,0,0,1,501.27,28.256ZM489.614,21.42a5.926,5.926,0,0,0,1.72,4.294,5.673,5.673,0,0,0,8.153.077,5.933,5.933,0,0,0,1.783-4.108v-.5a6.023,6.023,0,0,0-1.783-4.154,5.638,5.638,0,0,0-8.153.077A5.979,5.979,0,0,0,489.614,21.42Zm33.666-.543V21a.62.62,0,0,1-.217.5.782.782,0,0,1-.527.186H510.074a6.035,6.035,0,0,0,1.829,4.154,5.746,5.746,0,0,0,6.882.93,5.712,5.712,0,0,0,2.077-2.015.639.639,0,0,1,.992-.248.707.707,0,0,1,.248,1.054,7.35,7.35,0,0,1-2.62,2.511,7.209,7.209,0,0,1-8.742-1.286,7.413,7.413,0,0,1-2.155-5.363,7.465,7.465,0,0,1,2.155-5.378,6.9,6.9,0,0,1,5.146-2.232,6.977,6.977,0,0,1,5.069,2.031A7.694,7.694,0,0,1,523.28,20.878Zm-1.612-.651a5.862,5.862,0,0,0-1.984-3.534,5.723,5.723,0,0,0-7.471-.016,6.106,6.106,0,0,0-2.046,3.549Zm12.989,8.184a.825.825,0,0,1-.2.388.544.544,0,0,1-.434.2,1.131,1.131,0,0,1-.511-.124,1.08,1.08,0,0,1-.248-.341l-5.7-13.578a.659.659,0,0,1,0-.558q.31-.682.93-.4a.649.649,0,0,1,.4.4l5.053,11.966L539,14.4a.65.65,0,0,1,.388-.4.694.694,0,0,1,.573,0,.651.651,0,0,1,.372.961Zm25.73-7.533V21a.62.62,0,0,1-.217.5.782.782,0,0,1-.527.186H547.181a6.034,6.034,0,0,0,1.829,4.154,5.746,5.746,0,0,0,6.882.93,5.712,5.712,0,0,0,2.077-2.015.639.639,0,0,1,.992-.248.707.707,0,0,1,.248,1.054,7.35,7.35,0,0,1-2.62,2.511,7.209,7.209,0,0,1-8.742-1.286,7.413,7.413,0,0,1-2.155-5.363,7.465,7.465,0,0,1,2.155-5.378,6.9,6.9,0,0,1,5.146-2.232,6.977,6.977,0,0,1,5.068,2.031A7.694,7.694,0,0,1,560.387,20.878Zm-1.612-.651a5.862,5.862,0,0,0-1.984-3.534,5.723,5.723,0,0,0-7.471-.016,6.106,6.106,0,0,0-2.046,3.549Zm7.192,8.029V8.044a.741.741,0,0,1,.744-.744.77.77,0,0,1,.542.217.694.694,0,0,1,.233.527V28.256a.694.694,0,0,1-.233.527.77.77,0,0,1-.542.217.741.741,0,0,1-.744-.744Zm8.99-1.5a7.55,7.55,0,0,1-2.108-5.348,7.55,7.55,0,0,1,2.108-5.347,6.874,6.874,0,0,1,10.168,0,7.55,7.55,0,0,1,2.108,5.347,7.55,7.55,0,0,1-2.108,5.348,6.874,6.874,0,0,1-10.168,0Zm5.084-11.486a5.326,5.326,0,0,0-4.015,1.8,6.091,6.091,0,0,0-1.689,4.325,6.091,6.091,0,0,0,1.689,4.325,5.381,5.381,0,0,0,8.029,0,6.091,6.091,0,0,0,1.689-4.325,6.091,6.091,0,0,0-1.689-4.325A5.326,5.326,0,0,0,580.041,15.267ZM593.03,34.611V14.554a.741.741,0,0,1,.744-.744.77.77,0,0,1,.542.217.694.694,0,0,1,.232.527v2.2A7.129,7.129,0,0,1,597.06,14.6a7.2,7.2,0,0,1,8.463,1.41,7.351,7.351,0,0,1,2.139,5.317,7.456,7.456,0,0,1-2.139,5.347,6.941,6.941,0,0,1-5.208,2.232,6.841,6.841,0,0,1-3.255-.806,7.277,7.277,0,0,1-2.511-2.17v8.68a.694.694,0,0,1-.232.527.77.77,0,0,1-.542.217.741.741,0,0,1-.744-.744Zm1.519-13.516v.248a5.936,5.936,0,0,0,1.705,4.278,5.559,5.559,0,0,0,4.061,1.8,5.626,5.626,0,0,0,4.123-1.8,5.936,5.936,0,0,0,1.7-4.278,5.883,5.883,0,0,0-1.7-4.263,5.473,5.473,0,0,0-4.061-1.752A5.545,5.545,0,0,0,596.332,17,5.877,5.877,0,0,0,594.549,21.095ZM614.389,29H614.2a.722.722,0,0,1-.62-.558V14.554a.668.668,0,0,1,.217-.511.75.75,0,0,1,1.023,0,.668.668,0,0,1,.217.511v1.457a5.848,5.848,0,0,1,4.681-2.17,5.963,5.963,0,0,1,3.177.883,6.26,6.26,0,0,1,2.247,2.34,6.467,6.467,0,0,1,2.294-2.34,6.17,6.17,0,0,1,9.331,5.285v8.277a.683.683,0,0,1-.217.5.717.717,0,0,1-.527.217.668.668,0,0,1-.512-.217.708.708,0,0,1-.2-.5V20.01a4.8,4.8,0,0,0-1.426-3.332,4.6,4.6,0,0,0-6.587.016,4.556,4.556,0,0,0-1.38,3.317v8.37l-.031.062V28.5a.605.605,0,0,1-.31.357.916.916,0,0,1-.434.139h-.155l-.248-.124q-.031,0-.14-.124a1.212,1.212,0,0,1-.124-.155.6.6,0,0,1-.031-.077.2.2,0,0,0-.046-.078V20.01a4.566,4.566,0,0,0-1.364-3.332,4.678,4.678,0,0,0-6.634,0,4.567,4.567,0,0,0-1.364,3.332v8.277a.624.624,0,0,1-.341.589A.421.421,0,0,1,614.389,29Zm42.377-8.122V21a.62.62,0,0,1-.217.5.782.782,0,0,1-.527.186H643.56a6.034,6.034,0,0,0,1.829,4.154,5.746,5.746,0,0,0,6.882.93,5.712,5.712,0,0,0,2.077-2.015.639.639,0,0,1,.992-.248.707.707,0,0,1,.248,1.054,7.35,7.35,0,0,1-2.62,2.511,7.209,7.209,0,0,1-8.742-1.286,7.413,7.413,0,0,1-2.155-5.363,7.465,7.465,0,0,1,2.155-5.378,6.9,6.9,0,0,1,5.146-2.232,6.977,6.977,0,0,1,5.068,2.031A7.694,7.694,0,0,1,656.766,20.878Zm-1.612-.651a5.862,5.862,0,0,0-1.984-3.534,5.723,5.723,0,0,0-7.471-.016,6.106,6.106,0,0,0-2.046,3.549Zm8.432,8.153a.7.7,0,0,1-.713.62h-.186a.75.75,0,0,1-.5-.4.126.126,0,0,1-.031-.093l-.031-.062V14.585a.741.741,0,0,1,.744-.744.668.668,0,0,1,.511.217.746.746,0,0,1,.2.527v1.457a5.677,5.677,0,0,1,4.542-2.2,6.142,6.142,0,0,1,4.526,1.813,5.939,5.939,0,0,1,1.813,4.355v8.246a.744.744,0,1,1-1.488,0V20.01a4.53,4.53,0,0,0-1.364-3.3,4.659,4.659,0,0,0-6.6-.015,4.74,4.74,0,0,0-1.426,3.317Zm22.2-14.57a.745.745,0,0,1,0,1.488h-1.953V26.365a.984.984,0,0,0,.388.806,1.17,1.17,0,0,0,.7.31.771.771,0,0,1,.558.248.741.741,0,0,1,.248.527.692.692,0,0,1-.248.511.763.763,0,0,1-.527.233,2.614,2.614,0,0,1-1.907-.744,2.534,2.534,0,0,1-.759-1.891V15.3h-1.891q-.5,0-.62-.186a.881.881,0,0,1-.124-.5,2.052,2.052,0,0,1,.031-.434q.093-.372.713-.372h1.891V8.168a.711.711,0,0,1,.232-.512.727.727,0,0,1,.527-.233.779.779,0,0,1,.543.233.692.692,0,0,1,.248.512V13.81Z" transform="translate(249 516)" fill="#d1d1d1" stroke="#d1d1d1" stroke-width="0.2"/>
  </g>
</svg>
